<svg xmlns="http://www.w3.org/2000/svg" viewBox="0 0 481.18 215.76"><defs><style>.cls-1{fill:#fff;}.cls-2{fill:#1d1831;}</style></defs><title>bigCarWhiteFill</title><g id="Layer_2" data-name="Layer 2"><g id="Layer_2-2" data-name="Layer 2"><path class="cls-1" d="M37.78,46.55H7a7,7,0,0,0-7,7v92.36a7,7,0,0,0,7,7H37.78a7,7,0,0,0,7-7V53.55A7,7,0,0,0,37.78,46.55ZM14,60.55H30.78v78.36H14Z"/><rect class="cls-2" x="14" y="60.55" width="16.78" height="78.36"/><path class="cls-1" d="M131.65,138.94a22.61,22.61,0,1,0,22.6,22.61A22.63,22.63,0,0,0,131.65,138.94Zm0,31.21a8.61,8.61,0,1,1,8.6-8.6A8.61,8.61,0,0,1,131.65,170.15Z"/><path class="cls-1" d="M131.65,138.94a22.61,22.61,0,1,0,22.6,22.61A22.63,22.63,0,0,0,131.65,138.94Zm0,31.21a8.61,8.61,0,1,1,8.6-8.6A8.61,8.61,0,0,1,131.65,170.15Z"/><path class="cls-1" d="M365.78,138.94a22.61,22.61,0,1,0,22.6,22.61A22.63,22.63,0,0,0,365.78,138.94Zm0,31.21a8.61,8.61,0,1,1,8.6-8.6A8.61,8.61,0,0,1,365.78,170.15Z"/><path class="cls-1" d="M365.78,138.94a22.61,22.61,0,1,0,22.6,22.61A22.63,22.63,0,0,0,365.78,138.94Zm0,31.21a8.61,8.61,0,1,1,8.6-8.6A8.61,8.61,0,0,1,365.78,170.15Z"/><path class="cls-1" d="M131.65,138.94a22.61,22.61,0,1,0,22.6,22.61A22.63,22.63,0,0,0,131.65,138.94Zm0,31.21a8.61,8.61,0,1,1,8.6-8.6A8.61,8.61,0,0,1,131.65,170.15Zm0-31.21a22.61,22.61,0,1,0,22.6,22.61A22.63,22.63,0,0,0,131.65,138.94Zm0,31.21a8.61,8.61,0,1,1,8.6-8.6A8.61,8.61,0,0,1,131.65,170.15Zm0-31.21a22.61,22.61,0,1,0,22.6,22.61A22.63,22.63,0,0,0,131.65,138.94Zm0,31.21a8.61,8.61,0,1,1,8.6-8.6A8.61,8.61,0,0,1,131.65,170.15Zm0-31.21a22.61,22.61,0,1,0,22.6,22.61A22.63,22.63,0,0,0,131.65,138.94Zm0,31.21a8.61,8.61,0,1,1,8.6-8.6A8.61,8.61,0,0,1,131.65,170.15Zm0-62.82a54.28,54.28,0,0,0-54.22,54.22c0,.46,0,.93,0,1.39l0,.91c0,1.23.14,2.45.28,3.66,0,.3.06.59.1.89s.07.52.1.78l.15,1a53.35,53.35,0,0,0,2.35,9.31,50.52,50.52,0,0,0,1.9,4.69,54.23,54.23,0,0,0,98.58,0,50.52,50.52,0,0,0,1.9-4.69,53.35,53.35,0,0,0,2.35-9.31l.15-1c0-.26.07-.52.1-.78s.07-.59.1-.89c.14-1.21.23-2.43.28-3.66l0-.91c0-.46,0-.93,0-1.39A54.28,54.28,0,0,0,131.65,107.33Zm0,94.43a40.22,40.22,0,1,1,40.22-40.21,39.76,39.76,0,0,1-1,8.8q-.32,1.46-.75,2.88c-.08.27-.17.54-.26.81s-.17.53-.26.79h0A40.26,40.26,0,0,1,131.65,201.76Zm0-62.82a22.61,22.61,0,1,0,22.6,22.61A22.63,22.63,0,0,0,131.65,138.94Zm0,31.21a8.61,8.61,0,1,1,8.6-8.6A8.61,8.61,0,0,1,131.65,170.15Zm0-31.21a22.61,22.61,0,1,0,22.6,22.61A22.63,22.63,0,0,0,131.65,138.94Zm0,31.21a8.61,8.61,0,1,1,8.6-8.6A8.61,8.61,0,0,1,131.65,170.15Zm0-31.21a22.61,22.61,0,1,0,22.6,22.61A22.63,22.63,0,0,0,131.65,138.94Zm0,31.21a8.61,8.61,0,1,1,8.6-8.6A8.61,8.61,0,0,1,131.65,170.15Z"/><path class="cls-2" d="M131.65,121.33a40.22,40.22,0,1,0,38,53.51h0c.09-.26.18-.53.26-.79s.18-.54.26-.81q.43-1.42.75-2.88a39.76,39.76,0,0,0,1-8.8A40.26,40.26,0,0,0,131.65,121.33Zm0,62.82a22.61,22.61,0,1,1,22.6-22.6A22.63,22.63,0,0,1,131.65,184.15Z"/><path class="cls-1" d="M131.65,138.94a22.61,22.61,0,1,0,22.6,22.61A22.63,22.63,0,0,0,131.65,138.94Zm0,31.21a8.61,8.61,0,1,1,8.6-8.6A8.61,8.61,0,0,1,131.65,170.15Z"/><path class="cls-2" d="M140.25,161.55a8.6,8.6,0,1,1-8.6-8.61A8.61,8.61,0,0,1,140.25,161.55Z"/><path class="cls-1" d="M365.78,138.94a22.61,22.61,0,1,0,22.6,22.61A22.63,22.63,0,0,0,365.78,138.94Zm0,31.21a8.61,8.61,0,1,1,8.6-8.6A8.61,8.61,0,0,1,365.78,170.15Zm0-31.21a22.61,22.61,0,1,0,22.6,22.61A22.63,22.63,0,0,0,365.78,138.94Zm0,31.21a8.61,8.61,0,1,1,8.6-8.6A8.61,8.61,0,0,1,365.78,170.15Zm0-31.21a22.61,22.61,0,1,0,22.6,22.61A22.63,22.63,0,0,0,365.78,138.94Zm0,31.21a8.61,8.61,0,1,1,8.6-8.6A8.61,8.61,0,0,1,365.78,170.15Zm0-31.21a22.61,22.61,0,1,0,22.6,22.61A22.63,22.63,0,0,0,365.78,138.94Zm0,31.21a8.61,8.61,0,1,1,8.6-8.6A8.61,8.61,0,0,1,365.78,170.15Zm0-62.82a54.28,54.28,0,0,0-54.22,54.22c0,.46,0,.93,0,1.39l0,.91c.05,1.23.14,2.45.28,3.66,0,.3.06.59.1.89s.07.52.1.78l.15,1a53.35,53.35,0,0,0,2.35,9.31,50.52,50.52,0,0,0,1.9,4.69,54.23,54.23,0,0,0,98.58,0,50.52,50.52,0,0,0,1.9-4.69,53.35,53.35,0,0,0,2.35-9.31l.15-1c0-.26.07-.52.1-.78s.07-.59.1-.89c.14-1.21.23-2.43.28-3.66l0-.91c0-.46,0-.93,0-1.39A54.28,54.28,0,0,0,365.78,107.33Zm0,94.43A40.22,40.22,0,1,1,406,161.55a39.76,39.76,0,0,1-1,8.8q-.31,1.46-.75,2.88c-.09.27-.17.54-.26.81s-.17.53-.26.79h0A40.26,40.26,0,0,1,365.78,201.76Zm0-62.82a22.61,22.61,0,1,0,22.6,22.61A22.63,22.63,0,0,0,365.78,138.94Zm0,31.21a8.61,8.61,0,1,1,8.6-8.6A8.61,8.61,0,0,1,365.78,170.15Zm0-31.21a22.61,22.61,0,1,0,22.6,22.61A22.63,22.63,0,0,0,365.78,138.94Zm0,31.21a8.61,8.61,0,1,1,8.6-8.6A8.61,8.61,0,0,1,365.78,170.15Zm0-31.21a22.61,22.61,0,1,0,22.6,22.61A22.63,22.63,0,0,0,365.78,138.94Zm0,31.21a8.61,8.61,0,1,1,8.6-8.6A8.61,8.61,0,0,1,365.78,170.15Z"/><path class="cls-2" d="M365.78,121.33a40.22,40.22,0,1,0,38,53.51h0c.09-.26.18-.53.26-.79s.17-.54.26-.81q.44-1.42.75-2.88a39.76,39.76,0,0,0,1-8.8A40.26,40.26,0,0,0,365.78,121.33Zm0,62.82a22.61,22.61,0,1,1,22.6-22.6A22.63,22.63,0,0,1,365.78,184.15Z"/><path class="cls-1" d="M365.78,138.94a22.61,22.61,0,1,0,22.6,22.61A22.63,22.63,0,0,0,365.78,138.94Zm0,31.21a8.61,8.61,0,1,1,8.6-8.6A8.61,8.61,0,0,1,365.78,170.15Z"/><path class="cls-2" d="M374.38,161.55a8.61,8.61,0,1,1-8.6-8.61A8.61,8.61,0,0,1,374.38,161.55Z"/><path class="cls-1" d="M474.18,140.6h-7.93V98c.17-2.11.29-9.19-4.63-14.75-2.52-2.86-7.3-6.26-15.69-6.26H37.78a7,7,0,0,0-7,7v61.94a7.09,7.09,0,0,0,.83,3.31l2,3.69,14.8,27.55a7,7,0,0,0,6.17,3.69H87.07a7,7,0,0,0,6.61-9.32,40.22,40.22,0,1,1,77.22-4.48q-.32,1.46-.75,2.88c-.08.27-.16.54-.26.81s-.17.53-.26.79a7,7,0,0,0,6.6,9.32h145a7,7,0,0,0,6.61-9.32A40.22,40.22,0,1,1,405,170.35q-.31,1.46-.75,2.88c-.08.27-.16.54-.26.81s-.17.53-.26.79a7,7,0,0,0,6.6,9.32h63.82a7,7,0,0,0,7-7V147.6A7,7,0,0,0,474.18,140.6Zm-7,29.55H419.32l.15-1c0-.26.07-.52.1-.78s.07-.59.1-.89c.14-1.21.23-2.43.28-3.66l0-.91c0-.46,0-.93,0-1.39a54.22,54.22,0,0,0-108.44,0c0,.46,0,.93,0,1.39l0,.91c.05,1.23.14,2.45.28,3.66,0,.3.06.59.1.89s.07.52.1.78l.15,1h-127l.15-1c0-.26.07-.52.1-.78s.07-.59.1-.89c.14-1.21.23-2.43.28-3.66l0-.91c0-.46,0-.93,0-1.39a54.22,54.22,0,1,0-108.44,0c0,.46,0,.93,0,1.39l0,.91c0,1.23.14,2.45.28,3.66,0,.3.06.59.1.89s.07.52.1.78l.15,1H58.75l-14-26V91H445.93c1.74,0,4,.26,5.17,1.5s1.26,3.59,1.2,4.38a4.46,4.46,0,0,0-.05.82V147.6a7,7,0,0,0,7,7h7.93Z"/><path class="cls-2" d="M467.18,154.6v15.55H419.32l.15-1c0-.26.07-.52.1-.78s.07-.59.1-.89c.14-1.21.23-2.43.28-3.66l0-.91c0-.46,0-.93,0-1.39a54.22,54.22,0,0,0-108.44,0c0,.46,0,.93,0,1.39l0,.91c.05,1.23.14,2.45.28,3.66,0,.3.06.59.1.89s.07.52.1.78l.15,1h-127l.15-1c0-.26.07-.52.1-.78s.07-.59.1-.89c.14-1.21.23-2.43.28-3.66l0-.91c0-.46,0-.93,0-1.39a54.22,54.22,0,1,0-108.44,0c0,.46,0,.93,0,1.39l0,.91c0,1.23.14,2.45.28,3.66,0,.3.06.59.1.89s.07.52.1.78l.15,1H58.75l-14-26V121.93H62.73a7,7,0,1,0,0-14H44.78V91H445.93c1.74,0,4,.26,5.17,1.5s1.26,3.59,1.2,4.38a4.46,4.46,0,0,0-.05.82v10.12h-25a7,7,0,0,0,0,14h25V147.6a7,7,0,0,0,7,7Z"/><path class="cls-1" d="M69.73,114.93a7,7,0,0,1-7,7H37.78a7,7,0,0,1,0-14H62.73A7,7,0,0,1,69.73,114.93Z"/><path class="cls-1" d="M371.21,79.55,369.11,77,308.71,2.59A7,7,0,0,0,303.27,0H69.44a7,7,0,0,0-5.79,3.07L34.08,46.55,32,49.62a7,7,0,0,0-1.21,3.93V84a7,7,0,0,0,7,7h328a7,7,0,0,0,5.43-11.41ZM73.14,14h226.8l51.14,63H44.78V55.71Z"/><polygon class="cls-2" points="351.08 76.96 247.95 76.96 247.95 14 299.94 14 351.08 76.96"/><rect class="cls-2" x="154.26" y="14" width="79.69" height="62.96"/><polygon class="cls-2" points="140.26 14 140.26 76.96 44.78 76.96 44.78 55.71 73.14 14 140.26 14"/><path class="cls-1" d="M248,7V84a7,7,0,0,1-14,0V7a7,7,0,0,1,14,0Z"/><path class="cls-1" d="M154.26,7V84a7,7,0,0,1-14,0V7a7,7,0,0,1,14,0Z"/><path class="cls-1" d="M466.26,114.79a1.09,1.09,0,0,1,0,.18,7,7,0,0,1-7,6.82h-32a7,7,0,0,1,0-14h32a7,7,0,0,1,7,6.82A1.09,1.09,0,0,1,466.26,114.79Z"/></g></g></svg>