<svg xmlns="http://www.w3.org/2000/svg" viewBox="0 0 481.18 215.75"><defs><style>.cls-1{fill:#fff;}</style></defs><title>bigCarWhite</title><g id="Layer_2" data-name="Layer 2"><g id="Layer_2-2" data-name="Layer 2"><path class="cls-1" d="M37.78,152.9H7a7,7,0,0,1-7-7V53.55a7,7,0,0,1,7-7H37.78a7,7,0,0,1,7,7V145.9A7,7,0,0,1,37.78,152.9ZM14,138.9H30.78V60.55H14Z"/><path class="cls-1" d="M131.65,184.14a22.61,22.61,0,1,1,22.6-22.6A22.62,22.62,0,0,1,131.65,184.14Zm0-31.21a8.61,8.61,0,1,0,8.6,8.61A8.62,8.62,0,0,0,131.65,152.93Z"/><path class="cls-1" d="M131.65,184.14a22.61,22.61,0,1,1,22.6-22.6A22.62,22.62,0,0,1,131.65,184.14Zm0-31.21a8.61,8.61,0,1,0,8.6,8.61A8.62,8.62,0,0,0,131.65,152.93Z"/><path class="cls-1" d="M365.78,184.14a22.61,22.61,0,1,1,22.6-22.6A22.63,22.63,0,0,1,365.78,184.14Zm0-31.21a8.61,8.61,0,1,0,8.6,8.61A8.63,8.63,0,0,0,365.78,152.93Z"/><path class="cls-1" d="M365.78,184.14a22.61,22.61,0,1,1,22.6-22.6A22.63,22.63,0,0,1,365.78,184.14Zm0-31.21a8.61,8.61,0,1,0,8.6,8.61A8.63,8.63,0,0,0,365.78,152.93Z"/><path class="cls-1" d="M131.65,215.75a54.15,54.15,0,1,1,51.19-36.29A54.26,54.26,0,0,1,131.65,215.75Zm0-94.43a40.27,40.27,0,1,0,40.22,40.22A40.28,40.28,0,0,0,131.65,121.32Zm0,62.82a22.61,22.61,0,1,1,22.6-22.6A22.62,22.62,0,0,1,131.65,184.14Zm0-31.21a8.61,8.61,0,1,0,8.6,8.61A8.62,8.62,0,0,0,131.65,152.93Z"/><path class="cls-1" d="M131.65,184.14a22.61,22.61,0,1,1,22.6-22.6A22.62,22.62,0,0,1,131.65,184.14Zm0-31.21a8.61,8.61,0,1,0,8.6,8.61A8.62,8.62,0,0,0,131.65,152.93Z"/><path class="cls-1" d="M365.78,215.75A54.15,54.15,0,1,1,417,179.46,54.26,54.26,0,0,1,365.78,215.75Zm0-94.43A40.27,40.27,0,1,0,406,161.54,40.28,40.28,0,0,0,365.78,121.32Zm0,62.82a22.61,22.61,0,1,1,22.6-22.6A22.63,22.63,0,0,1,365.78,184.14Zm0-31.21a8.61,8.61,0,1,0,8.6,8.61A8.63,8.63,0,0,0,365.78,152.93Z"/><path class="cls-1" d="M365.78,184.14a22.61,22.61,0,1,1,22.6-22.6A22.63,22.63,0,0,1,365.78,184.14Zm0-31.21a8.61,8.61,0,1,0,8.6,8.61A8.63,8.63,0,0,0,365.78,152.93Z"/><path class="cls-1" d="M474.18,184.14H410.36a7,7,0,0,1-6.6-9.31,40.23,40.23,0,1,0-75.95,0,7,7,0,0,1-6.61,9.31h-145a7,7,0,0,1-6.6-9.31,40.23,40.23,0,1,0-75.95,0,7,7,0,0,1-6.61,9.31H54.56a7,7,0,0,1-6.16-3.68L31.62,149.22a7,7,0,0,1-.84-3.32V84a7,7,0,0,1,7-7H445.93c8.4,0,13.17,3.41,15.7,6.27,4.91,5.56,4.79,12.64,4.62,14.75v42.61h7.93a7,7,0,0,1,7,7v29.55A7,7,0,0,1,474.18,184.14Zm-54.85-14h47.85V154.59h-7.93a7,7,0,0,1-7-7V97.66a4.3,4.3,0,0,1,.05-.81c.06-.79,0-3.12-1.19-4.38S447.67,91,445.93,91H44.78v53.18l14,26H78.11a54.22,54.22,0,1,1,107.09,0h127a54.22,54.22,0,1,1,107.09,0Z"/><path class="cls-1" d="M62.73,121.93H37.78a7,7,0,0,1,0-14H62.73a7,7,0,1,1,0,14Z"/><path class="cls-1" d="M365.78,91h-328a7,7,0,0,1-7-7V53.55A7,7,0,0,1,32,49.62L63.65,3.06A7,7,0,0,1,69.44,0H303.27a7,7,0,0,1,5.44,2.59l62.5,77A7,7,0,0,1,365.78,91Zm-321-14h306.3L299.94,14H73.14L44.78,55.71Z"/><path class="cls-1" d="M241,91a7,7,0,0,1-7-7V7a7,7,0,0,1,14,0V84A7,7,0,0,1,241,91Z"/><path class="cls-1" d="M147.26,91a7,7,0,0,1-7-7V7a7,7,0,0,1,14,0V84A7,7,0,0,1,147.26,91Z"/><path class="cls-1" d="M459.26,121.79h-32a7,7,0,0,1,0-14h32a7,7,0,0,1,0,14Z"/></g></g></svg>