<svg xmlns="http://www.w3.org/2000/svg" viewBox="0 0 149.56 93.08"><defs><style>.cls-1{fill:#fff;}.cls-2{fill:#1d1831;}</style></defs><title>bikeSimpleWhiteFill</title><g id="Layer_2" data-name="Layer 2"><g id="Layer_2-2" data-name="Layer 2"><path class="cls-1" d="M124.87,43.67h-.15c-.44,0-.87,0-1.29,0A1.5,1.5,0,0,0,122,45.38l0,.16,2.17,9.7v0L126.42,65a1.44,1.44,0,0,0,.52.84,3.25,3.25,0,0,1,1.21,2.54,3.29,3.29,0,1,1-6.57,0,3.15,3.15,0,0,1,.29-1.33,1.51,1.51,0,0,0,.11-.94l-.09-.45q-1-4.7-2-9.39l-2-9.79a1.52,1.52,0,0,0-.75-1,1.54,1.54,0,0,0-1.26-.09l-1.17.48h0a22.91,22.91,0,0,0-3,1.63,1.56,1.56,0,0,0-.65.9c-.2.81-.41,1.6-.64,2.39s-.45,1.58-.69,2.35c-.14.45-.28.9-.43,1.34q-1,3.16-2.3,6.13c-.2.48-.41,1-.62,1.43s-.43.95-.65,1.41-.44.93-.68,1.39-.45.91-.7,1.36-.47.9-.72,1.34-.5.88-.75,1.32-.51.86-.77,1.29-.52.85-.8,1.27c-.14.22-.28.45-.43.67a1.51,1.51,0,0,0-.22,1.13q.12.6.27,1.2a24.7,24.7,0,1,0,24-30.74Zm0,46.41A21.75,21.75,0,0,1,103.7,73.21l.16-.26c.23-.34.45-.69.66-1s.5-.81.74-1.22A76.31,76.31,0,0,0,110.84,59c.2-.53.4-1.06.59-1.6s.38-1.08.56-1.62.35-1.06.52-1.59.38-1.22.56-1.85c0-.08.05-.16.07-.25.13-.43.24-.86.36-1.3l.3-1.12c.5-.3,1-.57,1.53-.83l1.44,6.95h0l.22,1,.45,2.16q.77,3.61,1.51,7.23a6,6,0,0,0-.37,2.11,6.29,6.29,0,1,0,10.66-4.51l-1.59-7.1-.71-3.17-1.55-6.91a21.7,21.7,0,0,1-.52,43.4Z"/><path class="cls-2" d="M146.56,68.37a21.7,21.7,0,0,1-42.86,4.84l.16-.26c.23-.34.45-.69.66-1s.5-.81.74-1.22A76.31,76.31,0,0,0,110.84,59c.2-.53.4-1.06.59-1.6s.38-1.08.56-1.62.35-1.06.52-1.59.38-1.22.56-1.85c0-.08.05-.16.07-.25.13-.43.24-.86.36-1.3l.3-1.12c.5-.3,1-.57,1.53-.83l1.44,6.95h0a14.92,14.92,0,1,0,10.17-2.25l-1.55-6.91A21.72,21.72,0,0,1,146.56,68.37Z"/><path class="cls-1" d="M126.94,53.59a11,11,0,0,0-1.14-.12,1.49,1.49,0,0,0-1.23.52,1.47,1.47,0,0,0-.35,1.13l0,.12v0L126.42,65a1.44,1.44,0,0,0,.52.84,3.25,3.25,0,0,1,1.21,2.54,3.29,3.29,0,1,1-6.57,0,3.15,3.15,0,0,1,.29-1.33,1.51,1.51,0,0,0,.11-.94l-.09-.45q-1-4.7-2-9.39a1.51,1.51,0,0,0-.84-1.06,1.47,1.47,0,0,0-1.34,0c-.34.18-.67.38-1,.58h0a14.92,14.92,0,1,0,10.17-2.25Zm-2.07,26.72A11.94,11.94,0,0,1,117.44,59q.77,3.61,1.51,7.23a6,6,0,0,0-.37,2.11,6.29,6.29,0,1,0,10.66-4.51l-1.59-7.1a11.94,11.94,0,0,1-2.78,23.55Z"/><path class="cls-2" d="M136.8,68.37A11.94,11.94,0,1,1,117.44,59q.77,3.61,1.51,7.23a6,6,0,0,0-.37,2.11,6.29,6.29,0,1,0,10.66-4.51l-1.59-7.1A12,12,0,0,1,136.8,68.37Z"/><path class="cls-1" d="M48.58,72.1a1.49,1.49,0,0,0-1.16-.56l-10.14,0-12.59,0a3.28,3.28,0,1,1,0-6.56h22.7a1.5,1.5,0,0,0,1.47-1.8c-.08-.4-.18-.8-.29-1.2a24.67,24.67,0,1,0,0,12.49c.1-.39.2-.79.28-1.19A1.49,1.49,0,0,0,48.58,72.1ZM24.69,90a21.7,21.7,0,1,1,20.77-28H24.69a6.28,6.28,0,1,0,0,12.56l10.17,0,3.4,0,7.22,0A21.79,21.79,0,0,1,24.69,90Z"/><path class="cls-2" d="M45.49,74.55a21.71,21.71,0,1,1,0-12.5H38.25a14.94,14.94,0,1,0,0,12.51Z"/><path class="cls-1" d="M38.51,72.22a1.5,1.5,0,0,0-1.23-.64l-12.59,0a3.28,3.28,0,1,1,0-6.56H37.44a1.49,1.49,0,0,0,1.05-.64A1.48,1.48,0,0,0,38.66,63c-.13-.33-.26-.65-.41-1a14.94,14.94,0,1,0,0,12.51,10.44,10.44,0,0,0,.41-1A1.48,1.48,0,0,0,38.51,72.22Zm-3.64,2.37a11.93,11.93,0,1,1,0-12.53H24.69a6.28,6.28,0,1,0,0,12.56l10.17,0Z"/><path class="cls-2" d="M34.87,74.59a11.93,11.93,0,1,1,0-12.53H24.69a6.28,6.28,0,1,0,0,12.56Z"/><path class="cls-1" d="M103,34.82a1.5,1.5,0,0,1-1.5,1.5H87.72a1.5,1.5,0,0,1,0-3h13.75A1.5,1.5,0,0,1,103,34.82Z"/><path class="cls-1" d="M97.47,40.43a1.5,1.5,0,0,1-1.5,1.5H77.34a1.5,1.5,0,0,1,0-3H96A1.5,1.5,0,0,1,97.47,40.43Z"/><path class="cls-1" d="M116.59,29.87a2.29,2.29,0,0,0-.08-.28,1.48,1.48,0,0,0-1.39-1H77.34a6.5,6.5,0,0,0-.62-1.51,8.57,8.57,0,0,0-7.2-4.68A13.43,13.43,0,0,0,64,23.86a12.9,12.9,0,0,1-5.51,1.39,12.92,12.92,0,0,1-5.82-1.56,10.29,10.29,0,0,0-4.39-1.3A9,9,0,0,0,42.54,25C25,16.69,18.29,15.25,18,15.2a1.5,1.5,0,0,0-1.68.87L14.62,20a6.24,6.24,0,0,0-.31,4.87c.72,2,2.46,3.48,5.17,4.51A1.51,1.51,0,0,0,21,29.1l3-2.64c27.54,15.4,30.11,31.08,30.24,35.59a9.08,9.08,0,0,1,0,1.28,1.49,1.49,0,0,0,.34,1.2,1.51,1.51,0,0,0,1.14.52c7.21,0,15.54-7,16.36-16.2H96.24L81.83,70.59l-.55.83-.44.67a1.5,1.5,0,0,0,1.25,2.32h20a1.48,1.48,0,0,0,1.29-.74l.3-.46.16-.26c.23-.34.45-.69.66-1s.5-.81.74-1.22A76.31,76.31,0,0,0,110.84,59c.2-.53.4-1.06.59-1.6s.38-1.08.56-1.62.35-1.06.52-1.59.38-1.22.56-1.85c0-.08.05-.16.07-.25.13-.43.24-.86.36-1.3l.3-1.12.15-.59c.27-1.07.53-2.15.75-3.24a0,0,0,0,0,0,0c.56-2.61,1-5.24,1.34-7.86v0a1,1,0,0,0,0-.18v-.07l.45-6.1.1-1.34a.45.45,0,0,0,0-.12A1.36,1.36,0,0,0,116.59,29.87ZM110.4,50.78c-.22.79-.45,1.58-.69,2.35-.14.45-.28.9-.43,1.34q-1,3.16-2.3,6.13c-.2.48-.41,1-.62,1.43s-.43.95-.65,1.41-.45.93-.68,1.39-.46.91-.7,1.36-.47.9-.72,1.34-.5.88-.75,1.32-.51.86-.77,1.29-.53.85-.8,1.27H84.88q7.71-11.61,15.4-23.23a1.49,1.49,0,0,0,.07-1.54A1.51,1.51,0,0,0,99,45.85H70.64a1.5,1.5,0,0,0-1.5,1.5,12.5,12.5,0,0,1-.07,1.38c0,.17,0,.35-.07.52a10,10,0,0,1-.23,1.24,2.75,2.75,0,0,1-.11.41A14.8,14.8,0,0,1,66.88,55c-.25.4-.51.79-.8,1.17s-.59.74-.9,1.09c-.15.17-.31.35-.48.51a15.73,15.73,0,0,1-3.18,2.52l-.47.27a12.17,12.17,0,0,1-1.26.61,4.66,4.66,0,0,1-.58.23,5.84,5.84,0,0,1-.59.2,4.73,4.73,0,0,1-.59.16,4.35,4.35,0,0,1-.58.13l-.17,0h0c-.1-5.55-3.09-22.34-32.73-38.59a1.5,1.5,0,0,0-1.71.19l-3.11,2.72a4.75,4.75,0,0,1-2.6-2.37,2.88,2.88,0,0,1-.18-1,3.53,3.53,0,0,1,.33-1.47.52.52,0,0,0,.06-.13l1.23-2.81c2.62.76,9.83,3.14,23.47,9.64l.17.08a1.5,1.5,0,0,0,1.45-.09,1.39,1.39,0,0,0,.27-.21l.07-.08a8.72,8.72,0,0,1,1.08-1,5.59,5.59,0,0,1,3.18-1.38,8,8,0,0,1,3.13,1,15.83,15.83,0,0,0,7.08,1.84,16,16,0,0,0,6.7-1.63,10.57,10.57,0,0,1,4.35-1.19,5.53,5.53,0,0,1,5,4.69,1.09,1.09,0,0,0,0,.26.22.22,0,0,0,0,.08.9.9,0,0,0,.08.23v0s0,.05,0,.08a.75.75,0,0,0,.07.12,1.39,1.39,0,0,0,.21.27,1.24,1.24,0,0,0,.22.18,1,1,0,0,0,.23.13,1.15,1.15,0,0,0,.33.1,1.27,1.27,0,0,0,.28,0h37.46l-.46,6v.14a89.94,89.94,0,0,1-2,10.6C110.84,49.2,110.63,50,110.4,50.78Z"/><path class="cls-2" d="M76.05,31.62a1.27,1.27,0,0,1-.28,0,1.15,1.15,0,0,1-.33-.1,1,1,0,0,1-.23-.13,1.24,1.24,0,0,1-.22-.18,1.39,1.39,0,0,1-.21-.27.75.75,0,0,1-.07-.12s0-.05,0-.08v0a.9.9,0,0,1-.08-.23.22.22,0,0,1,0-.08,1.09,1.09,0,0,1,0-.26,5.53,5.53,0,0,0-5-4.69,10.57,10.57,0,0,0-4.35,1.19,16,16,0,0,1-6.7,1.63,15.83,15.83,0,0,1-7.08-1.84,8,8,0,0,0-3.13-1,5.59,5.59,0,0,0-3.18,1.38l7.36,6.55h6a1.5,1.5,0,0,1,0,3h-6.6a1.53,1.53,0,0,1-.3,0h0a1.22,1.22,0,0,1-.27-.09.89.89,0,0,1-.25-.14s0,0,0,0a.45.45,0,0,1-.14-.1l-.06-.06L42,28.08c-13.64-6.5-20.85-8.88-23.47-9.64l-1.23,2.81a.52.52,0,0,1-.06.13A3.53,3.53,0,0,0,17,22.85a2.88,2.88,0,0,0,.18,1,4.75,4.75,0,0,0,2.6,2.37l3.11-2.72a1.5,1.5,0,0,1,1.71-.19c29.64,16.25,32.63,33,32.73,38.59l.17,0,.58-.13.59-.16.59-.2.58-.23a12.17,12.17,0,0,0,1.26-.61l.47-.27a15.73,15.73,0,0,0,3.18-2.52l.48-.51c.31-.35.61-.71.9-1.09s.55-.77.8-1.17a14.8,14.8,0,0,0,1.78-4.09,2.75,2.75,0,0,0,.11-.41A10,10,0,0,0,69,49.25c0-.17,0-.34.07-.52a12.5,12.5,0,0,0,.07-1.38,1.5,1.5,0,0,1,1.5-1.5H99a1.51,1.51,0,0,1,1.32.79,1.49,1.49,0,0,1-.07,1.54Q92.6,59.79,84.89,71.41h16.4c.27-.42.54-.84.8-1.27s.52-.86.77-1.29.5-.87.75-1.32.49-.89.72-1.34.47-.9.7-1.36.46-.92.68-1.39.43-.93.65-1.41.42-1,.62-1.43q1.26-3,2.3-6.13c.15-.44.29-.89.43-1.34.24-.77.47-1.56.69-2.35s.44-1.58.64-2.39a89.94,89.94,0,0,0,2-10.6v-.14l.45-6ZM96,41.93H77.34a1.5,1.5,0,0,1,0-3H96a1.5,1.5,0,0,1,0,3Zm5.5-5.61H87.72a1.5,1.5,0,0,1,0-3h13.75a1.5,1.5,0,0,1,0,3Z"/><path class="cls-1" d="M116.62,30.16c0,.12,0,.63,0,1.46a1.15,1.15,0,0,0,0,.19,1.48,1.48,0,0,0,0,.21c0,.17,0,.34,0,.53s0,.37,0,.57l0,.48c0,.29,0,.6-.07.92,0,.17,0,.35,0,.53,0,.33-.07.67-.1,1l-.06.57c0,.32-.07.65-.11,1,0,0,0,.06,0,.1l0,.23v0a1.47,1.47,0,0,1-1,1.22,1.4,1.4,0,0,1-.49.08,1.51,1.51,0,0,1-1.06-.43,1.63,1.63,0,0,1-.41-.75s0,0,0,0a1.24,1.24,0,0,1,0-.27v-.14l.45-6,.12-1.57a.32.32,0,0,1,0-.14.11.11,0,0,1,0-.08.57.57,0,0,1,0-.14.67.67,0,0,1,.07-.18.93.93,0,0,1,.11-.19s0,0,0,0l0-.05.16-.18a1.45,1.45,0,0,1,1.09-.4,1.51,1.51,0,0,1,1.33.92,2.29,2.29,0,0,1,.08.28A1.36,1.36,0,0,1,116.62,30.16Z"/><path class="cls-1" d="M60,34.82a1.5,1.5,0,0,1-1.5,1.5h-6.6a1.45,1.45,0,0,1-.3,0h0a1.07,1.07,0,0,1-.27-.09.89.89,0,0,1-.25-.14s0,0,0,0a1,1,0,0,1-.2-.16,1.5,1.5,0,0,1,1.06-2.56h6.6A1.5,1.5,0,0,1,60,34.82Z"/><path class="cls-1" d="M53,35.82a1.51,1.51,0,0,1-1.12.5,1.45,1.45,0,0,1-.3,0h0a1.07,1.07,0,0,1-.27-.09.89.89,0,0,1-.25-.14s0,0,0,0a.45.45,0,0,1-.14-.1l-.06-.06L42,28.08l-.18-.16a1.5,1.5,0,1,1,2-2.24l1.22,1.09,7.36,6.55.43.38A1.5,1.5,0,0,1,53,35.82Z"/><path class="cls-1" d="M103.18.21a1.52,1.52,0,0,0-1.64.07l-5,3.57a1.51,1.51,0,0,0-.24,2.24c3.28,3.6,8.28,9.56,10.24,13H100c-.66,0-15,0-23.26,8.06a18,18,0,0,0-1.87,2.11,1.48,1.48,0,0,0-.3.9,1.09,1.09,0,0,0,0,.26.22.22,0,0,0,0,.08.9.9,0,0,0,.08.23v0s0,.05,0,.08a.75.75,0,0,0,.07.12,1.39,1.39,0,0,0,.21.27,1.24,1.24,0,0,0,.22.18,1,1,0,0,0,.23.13,1.15,1.15,0,0,0,.33.1,1.27,1.27,0,0,0,.28,0h47.34a1.5,1.5,0,0,0,1.49-1.34C125,29.62,126.26,13.93,103.18.21ZM79.5,28.62c3.72-3.25,8.78-4.89,12.94-5.72a43.09,43.09,0,0,1,7.53-.85h8.82a1.5,1.5,0,0,0,1.47-1.8c-.72-3.48-7.58-11.5-10.63-14.93l2.85-2c16.74,10.26,19.09,21.5,19.39,25.32Z"/><path class="cls-2" d="M121.87,28.62H79.5c3.72-3.25,8.78-4.89,12.94-5.72a43.09,43.09,0,0,1,7.53-.85h8.82a1.5,1.5,0,0,0,1.47-1.8c-.72-3.48-7.58-11.5-10.63-14.93l2.85-2C119.22,13.56,121.57,24.8,121.87,28.62Z"/><path class="cls-1" d="M116.08,37.74s0-.07,0-.1c0-.35.08-.68.11-1l.06-.57c0-.35.07-.69.1-1,0-.18,0-.36,0-.53,0-.32,0-.63.07-.92l0-.48c0-.2,0-.39,0-.57s0-.36,0-.53a1.48,1.48,0,0,1,0-.21v-.19h-.07l-.45,6.1v.07a1,1,0,0,1,0,.18v0c-.33,2.62-.78,5.25-1.34,7.86l1.17-.48a1.54,1.54,0,0,1,1.26.09,1.52,1.52,0,0,1,.75,1Zm13.16,26.12-1.59-7.1-.71-3.17-1.55-6.91-.67-3-2.7-12-.41-1.82a1.5,1.5,0,0,0-1.46-1.18h-5a1.41,1.41,0,0,0-1,.45l-.16.18,0,.05s0,0,0,0a.93.93,0,0,0-.11.19.67.67,0,0,0-.07.18.57.57,0,0,0,0,.14.11.11,0,0,0,0,.08,1,1,0,0,0,0,.25c0,.13,0,.63,0,1.46,0,1.29-.19,3.36-.51,6a1.21,1.21,0,0,0,0,.19,2.11,2.11,0,0,0,0,.26s0,0,0,0l1.61,7.75v0l.63,3,1.44,6.95h0l.22,1,.45,2.16q.77,3.61,1.51,7.23a6,6,0,0,0-.37,2.11,6.29,6.29,0,1,0,10.66-4.51Zm-4.37,7.8a3.3,3.3,0,0,1-3.29-3.29,3.15,3.15,0,0,1,.29-1.33,1.51,1.51,0,0,0,.11-.94l-.09-.45q-1-4.7-2-9.39l-2-9.79-1.81-8.73s0-.07,0-.1c0-.35.08-.68.11-1l.06-.57c0-.35.07-.69.1-1,0-.18,0-.36,0-.53,0-.32,0-.63.07-.92l0-.48c0-.2,0-.39,0-.57s0-.36,0-.53a1.48,1.48,0,0,1,0-.21v-.19H119L122,45.38l0,.16,2.15,9.58,0,.12v0L126.42,65a1.44,1.44,0,0,0,.52.84,3.25,3.25,0,0,1,1.21,2.54A3.29,3.29,0,0,1,124.87,71.66Zm-8.79-33.92s0-.07,0-.1c0-.35.08-.68.11-1l.06-.57c0-.35.07-.69.1-1,0-.18,0-.36,0-.53,0-.32,0-.63.07-.92l0-.48c0-.2,0-.39,0-.57s0-.36,0-.53a1.48,1.48,0,0,1,0-.21v-.19h-.07l-.45,6.1v.07a1,1,0,0,1,0,.18v0c-.33,2.62-.78,5.25-1.34,7.86l1.17-.48a1.54,1.54,0,0,1,1.26.09,1.52,1.52,0,0,1,.75,1Z"/><path class="cls-2" d="M128.15,68.37a3.29,3.29,0,1,1-6.57,0,3.15,3.15,0,0,1,.29-1.33,1.51,1.51,0,0,0,.11-.94l-.09-.45q-1-4.7-2-9.39l-2-9.79-1.81-8.73s0-.07,0-.1c0-.35.08-.68.11-1l.06-.57c0-.16,0-.31,0-.46s0-.38,0-.56,0-.36,0-.53c0-.32,0-.63.07-.92l0-.48c0-.2,0-.39,0-.57s0-.36,0-.53a1.48,1.48,0,0,1,0-.21,1.15,1.15,0,0,1,0-.19H119L122,45.38l0,.16,2.17,9.7v0L126.42,65a1.44,1.44,0,0,0,.52.84A3.25,3.25,0,0,1,128.15,68.37Z"/><path class="cls-1" d="M116.62,30.16c0,.12,0,.63,0,1.46a1.15,1.15,0,0,0,0,.19,1.48,1.48,0,0,0,0,.21c0,.17,0,.34,0,.53s0,.37,0,.57l0,.48c0,.29,0,.6-.07.92,0,.17,0,.35,0,.53,0,.33-.07.67-.1,1l-.06.57c0,.32-.07.65-.11,1,0,0,0,.06,0,.1l0,.23v0a1.47,1.47,0,0,1-1,1.22,1.4,1.4,0,0,1-.49.08,1.51,1.51,0,0,1-1.06-.43,1.63,1.63,0,0,1-.41-.75s0,0,0,0a1.24,1.24,0,0,1,0-.27v-.14l.45-6,.12-1.57a.32.32,0,0,1,0-.14.11.11,0,0,1,0-.08.57.57,0,0,1,0-.14.67.67,0,0,1,.07-.18.93.93,0,0,1,.11-.19s0,0,0,0l0-.05.16-.18a1.45,1.45,0,0,1,1.09-.4,1.51,1.51,0,0,1,1.33.92,2.29,2.29,0,0,1,.08.28A1.36,1.36,0,0,1,116.62,30.16Z"/><path class="cls-1" d="M37.36,65.05h0Zm63-18.41A1.51,1.51,0,0,0,99,45.85H70.64a1.5,1.5,0,0,0-1.5,1.5,12.5,12.5,0,0,1-.07,1.38c0,.17,0,.35-.07.52a10,10,0,0,1-.23,1.24,2.75,2.75,0,0,1-.11.41A14.8,14.8,0,0,1,66.88,55c-.25.4-.51.79-.8,1.17s-.59.74-.9,1.09l-.48.51a15.73,15.73,0,0,1-3.18,2.52l-.47.27a12.17,12.17,0,0,1-1.26.61l-.58.23-.59.2-.59.16-.58.13-.17,0a9.35,9.35,0,0,1-1.57.14h-31a6.28,6.28,0,1,0,0,12.56l10.17,0h3.4l7.22,0h3.12L82,74.41h.11a1.49,1.49,0,0,0,1.25-.67l1-1.49c.19-.28.37-.56.55-.84h0q7.69-11.61,15.39-23.23A1.49,1.49,0,0,0,100.35,46.64Zm-18.52,24-.55.83-33.86.12-10.14,0-12.59,0a3.28,3.28,0,1,1,0-6.56h31c7.21,0,15.54-7,16.36-16.2H96.24ZM37.36,65.05h0Z"/><path class="cls-2" d="M96.24,48.85,81.83,70.59l-.55.83-33.86.12-10.14,0-12.59,0a3.28,3.28,0,1,1,0-6.56h31c7.21,0,15.54-7,16.36-16.2Z"/></g></g></svg>