<svg xmlns="http://www.w3.org/2000/svg" viewBox="0 0 149.56 93.07"><defs><style>.cls-1{fill:#fff;}</style></defs><title>bikeSimpleWhite</title><g id="Layer_2" data-name="Layer 2"><g id="Layer_2-2" data-name="Layer 2"><path class="cls-1" d="M124.87,93.07A24.74,24.74,0,0,1,100.64,73.2a1.36,1.36,0,0,1,0-.29,1.58,1.58,0,0,1,.25-.84,76.69,76.69,0,0,0,10.19-23.68,1.48,1.48,0,0,1,.64-.9,23.2,23.2,0,0,1,4.19-2.12,1.5,1.5,0,0,1,1.26.08,1.49,1.49,0,0,1,.75,1l2,9.79c.66,3.13,1.31,6.27,2,9.4l.09.45a1.53,1.53,0,0,1-.11.94,3.12,3.12,0,0,0-.29,1.33,3.29,3.29,0,0,0,6.57,0,3.25,3.25,0,0,0-1.21-2.54,1.44,1.44,0,0,1-.52-.84l-4.35-19.45a1.5,1.5,0,0,1,1.36-1.83c.47,0,1,0,1.44,0a24.7,24.7,0,0,1,0,49.4ZM103.71,73.2A21.7,21.7,0,1,0,125.4,46.68l3.84,17.18a6.23,6.23,0,0,1,1.91,4.51,6.29,6.29,0,0,1-12.57,0,6,6,0,0,1,.37-2.11q-1-4.7-2-9.39l-1.66-8c-.52.25-1,.53-1.53.83A79.68,79.68,0,0,1,103.71,73.2Z"/><path class="cls-1" d="M124.87,83.31a14.94,14.94,0,0,1-7.12-28.07,1.5,1.5,0,0,1,2.18,1c.66,3.13,1.31,6.27,2,9.4l.09.45a1.53,1.53,0,0,1-.11.94,3.12,3.12,0,0,0-.29,1.33,3.29,3.29,0,0,0,6.57,0,3.25,3.25,0,0,0-1.21-2.54,1.44,1.44,0,0,1-.52-.84l-2.17-9.7a1.46,1.46,0,0,1,.32-1.3,1.51,1.51,0,0,1,1.23-.53,14.94,14.94,0,0,1-.93,29.85ZM117.44,59a11.94,11.94,0,1,0,10.21-2.26l1.59,7.1a6.23,6.23,0,0,1,1.91,4.51,6.29,6.29,0,0,1-12.57,0,6,6,0,0,1,.37-2.11Q118.2,62.63,117.44,59Z"/><path class="cls-1" d="M24.69,93a24.7,24.7,0,1,1,24.17-29.8,1.52,1.52,0,0,1-.31,1.26,1.48,1.48,0,0,1-1.16.55H24.69a3.28,3.28,0,1,0,0,6.56l22.73-.08h0a1.5,1.5,0,0,1,1.47,1.8A24.79,24.79,0,0,1,24.69,93Zm0-46.4A21.7,21.7,0,1,0,45.5,74.55l-20.8.07a6.28,6.28,0,1,1,0-12.56H45.46A21.79,21.79,0,0,0,24.69,46.64Z"/><path class="cls-1" d="M24.69,83.28A14.94,14.94,0,1,1,38.66,63a1.48,1.48,0,0,1-.16,1.38,1.5,1.5,0,0,1-1.24.65H24.69a3.28,3.28,0,1,0,0,6.56l12.58-.05h0a1.5,1.5,0,0,1,1.4,2A15,15,0,0,1,24.69,83.28Zm0-26.88A11.94,11.94,0,1,0,34.87,74.58l-10.17,0a6.28,6.28,0,1,1,0-12.56H34.85A12,12,0,0,0,24.69,56.4Z"/><path class="cls-1" d="M101.47,36.32H87.72a1.5,1.5,0,0,1,0-3h13.75a1.5,1.5,0,0,1,0,3Z"/><path class="cls-1" d="M96,41.93H77.34a1.5,1.5,0,0,1,0-3H96a1.5,1.5,0,0,1,0,3Z"/><path class="cls-1" d="M102.11,74.41h-20a1.5,1.5,0,0,1-1.25-2.33l1-1.49L96.24,48.85H72.07c-.82,9.23-9.15,16.2-16.36,16.2a1.49,1.49,0,0,1-1.48-1.73c0-.18,2.25-18.71-30.21-36.87L21,29.1a1.5,1.5,0,0,1-1.52.27c-2.71-1-4.45-2.54-5.17-4.51A6.26,6.26,0,0,1,14.62,20l1.72-3.94A1.49,1.49,0,0,1,18,15.19c.28.06,7,1.5,24.53,9.8a9,9,0,0,1,5.72-2.6,10.41,10.41,0,0,1,4.39,1.29,12.91,12.91,0,0,0,5.82,1.57A13,13,0,0,0,64,23.86a13.27,13.27,0,0,1,5.54-1.43c3.71,0,7,3.12,7.82,6.19h37.78a1.5,1.5,0,0,1,1.5,1.5v.15l-.56,7.44v.08a1.34,1.34,0,0,1,0,.2A92.79,92.79,0,0,1,114,49.12,79.47,79.47,0,0,1,103.4,73.67,1.5,1.5,0,0,1,102.11,74.41Zm0-1.51h0ZM84.88,71.41h16.41a77,77,0,0,0,9.76-23,92.16,92.16,0,0,0,2-10.61v-.13l.46-6H76.05a1.5,1.5,0,0,1-1.5-1.5,5.52,5.52,0,0,0-5-4.69,10.71,10.71,0,0,0-4.35,1.18,15.8,15.8,0,0,1-6.7,1.64,15.7,15.7,0,0,1-7.08-1.85,8.12,8.12,0,0,0-3.13-1c-1.79,0-3.68,1.72-4.26,2.38l-.07.08a1.44,1.44,0,0,1-.27.22,1.5,1.5,0,0,1-1.45.08c-13.75-6.55-21-8.95-23.64-9.71l-1.22,2.81a.83.83,0,0,1-.07.13h0a3.39,3.39,0,0,0-.15,2.48,4.75,4.75,0,0,0,2.6,2.37l3.11-2.73a1.52,1.52,0,0,1,1.71-.19c29.66,16.26,32.63,33.06,32.73,38.6,5.71-1,11.86-7.11,11.86-14.56a1.5,1.5,0,0,1,1.5-1.5H99a1.5,1.5,0,0,1,1.25,2.33Q92.59,59.79,84.88,71.41Zm29.67-33.65h0Z"/><path class="cls-1" d="M114.56,39.29a1.49,1.49,0,0,1-1.06-.44,1.58,1.58,0,0,1-.45-1.09v-.11l.57-7.6a1.5,1.5,0,0,1,3,.11,70.43,70.43,0,0,1-.57,7.81,1.51,1.51,0,0,1-1,1.24A1.67,1.67,0,0,1,114.56,39.29Z"/><path class="cls-1" d="M58.47,36.32h-6.6a1.5,1.5,0,0,1,0-3h6.6a1.5,1.5,0,0,1,0,3Z"/><path class="cls-1" d="M51.87,36.32a1.54,1.54,0,0,1-1-.38l-9-8a1.5,1.5,0,0,1,2-2.24l9,8a1.5,1.5,0,0,1-1,2.62Z"/><path class="cls-1" d="M123.39,31.62H76.05a1.5,1.5,0,0,1-1.2-2.4C82.51,19.09,99.27,19,100,19.05h6.54c-2-3.4-7-9.37-10.24-13a1.5,1.5,0,0,1,.24-2.23l5-3.57a1.5,1.5,0,0,1,1.64-.07c23.08,13.71,21.77,29.4,21.7,30.06A1.5,1.5,0,0,1,123.39,31.62Zm-43.89-3h42.37c-.29-3.82-2.65-15.07-19.39-25.33l-2.85,2c3.05,3.43,9.91,11.45,10.63,14.93a1.5,1.5,0,0,1-1.47,1.8H100C99.73,22.05,87,22.12,79.5,28.62Z"/><path class="cls-1" d="M124.87,74.65a6.29,6.29,0,0,1-6.29-6.28,6,6,0,0,1,.37-2.11q-1-4.7-2-9.39l-3.9-18.77a1.53,1.53,0,0,1,0-.3,1.21,1.21,0,0,1,0-.19,67.12,67.12,0,0,0,.55-7.45,1.53,1.53,0,0,1,1.5-1.54h5a1.5,1.5,0,0,1,1.46,1.17l7.63,34.07a6.23,6.23,0,0,1,1.91,4.51A6.29,6.29,0,0,1,124.87,74.65Zm-8.79-36.92,3.85,18.52c.66,3.13,1.31,6.27,2,9.4l.09.45a1.53,1.53,0,0,1-.11.94,3.12,3.12,0,0,0-.29,1.33,3.29,3.29,0,0,0,6.57,0,3.25,3.25,0,0,0-1.21-2.54,1.44,1.44,0,0,1-.52-.84L119,31.62h-2.37C116.53,32.94,116.4,35.05,116.08,37.73Z"/><path class="cls-1" d="M114.56,39.29a1.49,1.49,0,0,1-1.06-.44,1.58,1.58,0,0,1-.45-1.09v-.11l.57-7.6a1.5,1.5,0,0,1,3,.11,70.43,70.43,0,0,1-.57,7.81,1.51,1.51,0,0,1-1,1.24A1.67,1.67,0,0,1,114.56,39.29Z"/><path class="cls-1" d="M24.7,74.62a6.28,6.28,0,1,1,0-12.56h31c6.08,0,13.43-6.56,13.43-14.7a1.5,1.5,0,0,1,1.5-1.5H99a1.5,1.5,0,0,1,1.25,2.33q-8,12-16,24.06l-1,1.5a1.49,1.49,0,0,1-1.24.67H82l-34.55.13Zm0-9.56a3.28,3.28,0,1,0,0,6.56l22.73-.08,33.86-.13.55-.82L96.24,48.85H72.07c-.82,9.23-9.15,16.2-16.36,16.2Z"/></g></g></svg>