<svg xmlns="http://www.w3.org/2000/svg" viewBox="0 0 310.57 158.94"><defs><style>.cls-1{fill:#fff;}.cls-2{fill:#1d1831;}</style></defs><title>moterHomeWhiteFill</title><g id="Layer_2" data-name="Layer 2"><g id="Layer_2-2" data-name="Layer 2"><path class="cls-1" d="M252.33,10.18H2.54A2.51,2.51,0,0,0,0,12.64c-.11,6.91,0,53.25.13,85.26v2.28l0,5.06c0,14,.09,23.79.09,23.79a2.5,2.5,0,0,0,2.5,2.49H57.57A2.5,2.5,0,0,0,60,129.66a19.15,19.15,0,0,1,18.5-14.2,19.47,19.47,0,0,1,3.26.28l.66.13L83,116l.55.14.74.22c.24.07.47.15.7.24a.76.76,0,0,1,.16.06,6.44,6.44,0,0,1,.61.24l.67.28.4.19c.23.11.45.22.68.35l.55.31c.19.1.37.21.54.32s.39.24.59.38.33.22.5.35c.39.28.78.58,1.16.9.17.14.34.28.5.44l.57.52c.29.29.57.59.84.89s.48.55.71.83.63.83.92,1.26.42.65.62,1l.31.55q.16.29.3.57.28.59.54,1.17c.07.16.13.32.19.48s.2.52.28.78.13.38.19.58l.18.63a2.5,2.5,0,0,0,2.41,1.85H208.61a2.5,2.5,0,0,0,2.5-2.5V53.16h77.51a2.5,2.5,0,0,0,2.5-2.5C291.12,11.1,252.75,10.18,252.33,10.18Zm-43.72,38a2.5,2.5,0,0,0-2.5,2.5v75.86H101.24c-.08-.23-.17-.47-.26-.7-.25-.65-.53-1.28-.84-1.9-.14-.28-.28-.56-.43-.83s-.29-.54-.46-.81-.27-.45-.41-.67l-.14-.22-.33-.49-.11-.15c-.18-.26-.37-.51-.56-.77s-.37-.48-.57-.72-.39-.47-.6-.7-.41-.45-.62-.67-.43-.44-.65-.65l-.33-.31-.34-.31c-.17-.16-.34-.31-.52-.45s-.35-.29-.53-.43l-.54-.42c-.18-.15-.37-.28-.55-.41s-.5-.35-.76-.51l-.49-.31A19.43,19.43,0,0,0,89.31,113l-.83-.4-.64-.28-.34-.14-.33-.13c-.23-.09-.46-.18-.69-.25s-.65-.23-1-.33l-.35-.1c-.46-.14-.93-.26-1.4-.36s-.81-.17-1.22-.24-.66-.11-1-.15-.67-.08-1-.1-.5,0-.75,0l-.43,0c-.28,0-.57,0-.85,0s-.74,0-1.1,0-.5,0-.75.05l-.75.07-.83.1a2.38,2.38,0,0,0-.37.06l-.38.06a2.41,2.41,0,0,0-.37.07c-.38.07-.75.15-1.12.24s-.61.15-.91.24l-.55.16-.31.1c-.34.11-.69.23-1,.36l-.53.2a23.11,23.11,0,0,0-3,1.44l-.51.3c-.39.23-.78.48-1.16.74l-.62.44a24.48,24.48,0,0,0-2.53,2.12l-.48.48q-.39.39-.75.81c-.24.26-.47.52-.68.79a4,4,0,0,0-.26.32c-.28.35-.54.7-.79,1.06s-.41.59-.6.89c-.08.12-.16.24-.23.36q-.44.7-.81,1.44c-.09.16-.17.32-.25.48s-.22.43-.31.65-.11.24-.16.36c-.24.54-.46,1.08-.66,1.64H5.28c0-3.44,0-10.2-.07-18.79,0-.82,0-1.66,0-2.51l0-5.06c0-3.27,0-6.7,0-10.25C5.06,61.49,5,26.05,5,15.18H252.3c1.34,0,32.24.86,33.76,33Z"/><path class="cls-2" d="M206.11,107.7v18.82H101.24c-.08-.24-.17-.47-.26-.7-.25-.65-.53-1.28-.84-1.9a9.33,9.33,0,0,0-.43-.83c-.14-.27-.29-.54-.46-.81a6.68,6.68,0,0,0-.41-.67l-.14-.22c-.1-.16-.21-.33-.33-.49l-.11-.15c-.17-.26-.36-.52-.56-.77s-.37-.48-.57-.72-.39-.47-.6-.7-.4-.45-.62-.67-.43-.45-.65-.65l-.33-.31a3.18,3.18,0,0,0-.34-.31c-.17-.16-.34-.31-.52-.45a5.25,5.25,0,0,0-.53-.43l-.54-.42c-.18-.15-.37-.28-.55-.41s-.5-.35-.76-.51a5,5,0,0,0-.49-.31A19.43,19.43,0,0,0,89.31,113a9,9,0,0,0-.83-.4l-.64-.28-.34-.14-.33-.13c-.23-.09-.46-.18-.69-.25s-.65-.23-1-.33l-.35-.1c-.46-.14-.93-.26-1.4-.36s-.81-.17-1.22-.24-.66-.11-1-.15-.67-.08-1-.1-.5,0-.75,0l-.43,0c-.28,0-.57,0-.85,0s-.74,0-1.1,0-.5,0-.75.05a6.34,6.34,0,0,0-.75.07,7.83,7.83,0,0,0-.83.1,2.38,2.38,0,0,0-.37.06,2.5,2.5,0,0,0-.38.06,2.41,2.41,0,0,0-.37.07,10.62,10.62,0,0,0-1.12.24c-.31.07-.61.15-.91.24a5.7,5.7,0,0,0-.55.16l-.31.1a10.52,10.52,0,0,0-1,.36l-.53.2a23.11,23.11,0,0,0-3,1.44q-.25.14-.51.3c-.39.23-.78.48-1.16.74l-.62.44a24.48,24.48,0,0,0-2.53,2.12l-.48.48q-.39.39-.75.81c-.24.26-.47.52-.68.79a3.65,3.65,0,0,0-.26.32c-.28.35-.54.7-.79,1.06s-.41.59-.6.89c-.08.12-.16.24-.23.36q-.44.7-.81,1.44c-.09.16-.18.32-.25.48s-.22.43-.31.65a2.83,2.83,0,0,0-.16.36c-.24.54-.46,1.08-.66,1.64H5.28c0-3.44,0-10.2-.07-18.79H119.1v4.9a12.78,12.78,0,0,0,12.77,12.77H148.7a12.78,12.78,0,0,0,12.77-12.77V107.7Z"/><path class="cls-2" d="M252.3,15.18H5c-.06,10.87,0,46.31.13,74.73h114V61a12.78,12.78,0,0,1,12.77-12.76H148.7A12.78,12.78,0,0,1,161.47,61V90.1h44.64V50.66a2.5,2.5,0,0,1,2.5-2.5h77.45C284.54,16,253.64,15.2,252.3,15.18Zm-143.75,57A12.66,12.66,0,0,1,95.9,84.81H32.67A12.66,12.66,0,0,1,20,72.16V60.92A12.65,12.65,0,0,1,32.67,48.28H95.9a12.66,12.66,0,0,1,12.65,12.64Zm90.51-.57a2.5,2.5,0,0,1-2.5,2.5H171.51a2.49,2.49,0,0,1-2.5-2.5V50.73a2.49,2.49,0,0,1,2.5-2.5h25.05a2.49,2.49,0,0,1,2.5,2.5Z"/><path class="cls-1" d="M74.9,0H48.82a2.5,2.5,0,0,0-2.5,2.5V12.68a2.5,2.5,0,0,0,2.5,2.5H74.9a2.5,2.5,0,0,0,2.5-2.5V2.5A2.5,2.5,0,0,0,74.9,0ZM51.32,10.18V5H72.4v5.18Z"/><rect class="cls-2" x="51.32" y="5" width="21.08" height="5.18"/><path class="cls-1" d="M196.56,48.23H171.51a2.49,2.49,0,0,0-2.5,2.5V71.59a2.49,2.49,0,0,0,2.5,2.5h25.05a2.5,2.5,0,0,0,2.5-2.5V50.73A2.49,2.49,0,0,0,196.56,48.23Zm-2.5,20.86H174V53.23h20.05Z"/><rect class="cls-2" x="174.01" y="53.23" width="20.05" height="15.86"/><path class="cls-1" d="M149.9,57.06H130.42a2.5,2.5,0,0,0-2.5,2.5V80.43a2.5,2.5,0,0,0,2.5,2.5H149.9a2.5,2.5,0,0,0,2.5-2.5V59.56A2.5,2.5,0,0,0,149.9,57.06Zm-2.5,20.87H132.92V62.06H147.4Z"/><path class="cls-1" d="M243.73,0H196.56a2.5,2.5,0,0,0-2.5,2.5V12.68a2.5,2.5,0,0,0,2.5,2.5h47.17a2.5,2.5,0,0,0,2.5-2.5V2.5A2.5,2.5,0,0,0,243.73,0ZM199.06,10.18V5h42.17v5.18Z"/><rect class="cls-2" x="199.06" y="5" width="42.17" height="5.18"/><path class="cls-1" d="M148.7,48.23H131.87A12.78,12.78,0,0,0,119.1,61v51.64a12.78,12.78,0,0,0,12.77,12.77H148.7a12.78,12.78,0,0,0,12.77-12.77V61A12.78,12.78,0,0,0,148.7,48.23Zm7.77,64.4a7.77,7.77,0,0,1-7.77,7.77H131.87a7.78,7.78,0,0,1-7.77-7.77V61a7.78,7.78,0,0,1,7.77-7.76H148.7A7.77,7.77,0,0,1,156.47,61Z"/><path class="cls-2" d="M148.7,53.23H131.87A7.78,7.78,0,0,0,124.1,61v51.64a7.78,7.78,0,0,0,7.77,7.77H148.7a7.77,7.77,0,0,0,7.77-7.77V61A7.77,7.77,0,0,0,148.7,53.23Zm3.7,27.2a2.5,2.5,0,0,1-2.5,2.5H130.42a2.5,2.5,0,0,1-2.5-2.5V59.56a2.5,2.5,0,0,1,2.5-2.5H149.9a2.5,2.5,0,0,1,2.5,2.5Z"/><rect class="cls-2" x="132.92" y="62.06" width="14.48" height="15.87"/><path class="cls-1" d="M95.9,48.28H32.67A12.65,12.65,0,0,0,20,60.92V72.16A12.66,12.66,0,0,0,32.67,84.81H95.9a12.66,12.66,0,0,0,12.65-12.65V60.92A12.66,12.66,0,0,0,95.9,48.28Zm7.65,23.88a7.66,7.66,0,0,1-7.65,7.65H32.67A7.65,7.65,0,0,1,25,72.16V60.92a7.65,7.65,0,0,1,7.64-7.64H95.9a7.65,7.65,0,0,1,7.65,7.64Z"/><path class="cls-2" d="M61.79,53.28V79.81H32.67A7.65,7.65,0,0,1,25,72.16V60.92a7.65,7.65,0,0,1,7.64-7.64Z"/><path class="cls-2" d="M103.55,60.92V72.16a7.66,7.66,0,0,1-7.65,7.65H66.79V53.28H95.9A7.65,7.65,0,0,1,103.55,60.92Z"/><path class="cls-1" d="M66.79,50.78V82.31a2.5,2.5,0,1,1-5,0V50.78a2.5,2.5,0,0,1,5,0Z"/><path class="cls-1" d="M121.6,89.91H2.66a2.51,2.51,0,0,0-2.5,2.51v7.76l0,5.06a2.51,2.51,0,0,0,2.5,2.49H121.6a2.5,2.5,0,0,0,2.5-2.5V92.41A2.5,2.5,0,0,0,121.6,89.91Zm-2.5,12.82H5.2l0-7.82H119.1Z"/><polygon class="cls-2" points="119.1 94.91 119.1 102.73 5.2 102.73 5.17 94.91 119.1 94.91"/><path class="cls-1" d="M308.43,90.14a1.84,1.84,0,0,0-.41,0H159a2.5,2.5,0,0,0-2.5,2.5v12.6a2.5,2.5,0,0,0,2.5,2.5H308a2.5,2.5,0,0,0,2.5-2.5V92.6A2.49,2.49,0,0,0,308.43,90.14Zm-2.91,12.56h-144V95.1h144Z"/><rect class="cls-2" x="161.47" y="95.1" width="44.64" height="7.6"/><path class="cls-1" d="M102.44,131.52a23.56,23.56,0,0,0-.62-3.14q-.25-.94-.57-1.86h0c-.08-.23-.17-.47-.26-.7-.25-.65-.53-1.28-.84-1.9-.14-.28-.28-.56-.43-.83s-.29-.54-.46-.81-.27-.45-.41-.67l-.14-.22-.33-.49-.11-.15c-.18-.26-.37-.51-.56-.77s-.37-.48-.57-.72-.39-.47-.6-.7-.41-.45-.62-.67-.43-.44-.65-.65l-.33-.31-.34-.31c-.17-.16-.34-.31-.52-.45s-.35-.29-.53-.43l-.54-.42c-.18-.15-.37-.28-.55-.41s-.5-.35-.76-.51l-.49-.31A19.43,19.43,0,0,0,89.31,113l-.83-.4-.64-.28-.34-.14-.33-.13c-.23-.09-.46-.18-.69-.25s-.65-.23-1-.33l-.35-.1c-.46-.14-.93-.26-1.4-.36s-.81-.17-1.22-.24-.66-.11-1-.15-.67-.08-1-.1-.5,0-.75,0l-.43,0c-.28,0-.57,0-.85,0s-.74,0-1.1,0-.5,0-.75.05l-.75.07-.83.1a2.38,2.38,0,0,0-.37.06l-.38.06a2.41,2.41,0,0,0-.37.07c-.38.07-.75.15-1.12.24s-.61.15-.91.24l-.55.16-.31.1c-.34.11-.69.23-1,.36l-.53.2a23.11,23.11,0,0,0-3,1.44l-.51.3c-.39.23-.78.48-1.16.74l-.62.44a24.48,24.48,0,0,0-2.53,2.12l-.48.48q-.39.39-.75.81c-.24.26-.47.52-.68.79a4,4,0,0,0-.26.32c-.28.35-.54.7-.79,1.06s-.41.59-.6.89c-.08.12-.16.24-.23.36q-.44.7-.81,1.44c-.09.16-.17.32-.25.48s-.22.43-.31.65-.11.24-.16.36c-.24.54-.46,1.08-.66,1.64s-.4,1.22-.57,1.85a22.21,22.21,0,0,0-.62,3.15,24.14,24.14,0,1,0,47.9,0Zm-24,22.23A19.17,19.17,0,0,1,59.34,134.6a18.92,18.92,0,0,1,.65-4.94,19.15,19.15,0,0,1,18.5-14.2,19.47,19.47,0,0,1,3.26.28l.66.13L83,116l.55.14.74.22c.24.07.47.15.7.24a.76.76,0,0,1,.16.06,6.44,6.44,0,0,1,.61.24l.67.28.4.19c.23.11.45.22.68.35s.37.2.55.31.36.2.54.32.39.24.59.38.33.22.5.35c.39.28.78.58,1.16.9l.5.44.57.52c.29.29.57.59.84.89s.48.55.71.83.63.83.92,1.26.43.65.62,1a6,6,0,0,1,.31.55q.16.29.3.57a12.39,12.39,0,0,1,.54,1.17c.07.16.13.32.19.48s.2.52.28.78.13.38.19.58l.18.63a19.17,19.17,0,0,1-18.5,24.08Z"/><path class="cls-2" d="M97,129.67l-.18-.63c-.06-.2-.12-.39-.19-.58s-.18-.52-.28-.78-.12-.32-.19-.48q-.25-.58-.54-1.17-.14-.28-.3-.57l-.31-.55c-.2-.34-.41-.67-.62-1s-.6-.85-.92-1.26-.47-.56-.71-.83-.55-.6-.84-.89l-.57-.52-.5-.44c-.38-.32-.77-.62-1.16-.9-.17-.13-.33-.24-.5-.35s-.39-.26-.59-.38-.35-.22-.54-.32l-.55-.31c-.23-.13-.45-.24-.68-.35l-.4-.19-.67-.28a6.44,6.44,0,0,0-.61-.24.76.76,0,0,0-.16-.06c-.23-.09-.46-.17-.7-.24l-.74-.22L83,116l-.58-.13-.66-.13a19.47,19.47,0,0,0-3.26-.28A19.15,19.15,0,0,0,60,129.66a18.92,18.92,0,0,0-.65,4.94A19.15,19.15,0,1,0,97,129.67Zm-18.5,15.1A10.17,10.17,0,1,1,88.65,134.6,10.18,10.18,0,0,1,78.49,144.77Z"/><path class="cls-1" d="M85.45,127.2a10.18,10.18,0,0,0-13.94,0,10.17,10.17,0,1,0,13.94,0Zm-7,12.57a5.17,5.17,0,1,1,0-10.33,5.17,5.17,0,0,1,0,10.33Z"/><path class="cls-2" d="M83.65,134.6A5.17,5.17,0,1,1,82,130.84,5.17,5.17,0,0,1,83.65,134.6Z"/><path class="cls-1" d="M208.61,73.35a2.5,2.5,0,0,1-2.5-2.5V95.1h5V73.35Zm-2.5,16.75v5h5v-5Zm0,0v5h5v-5Zm0,0v5h5v-5Zm104.41,8.84v-6a2.5,2.5,0,0,0-1-2l-1.06-.77L280,69.32l-5-16.16-1-3.23a2.5,2.5,0,0,0-2.39-1.77h-63a2.5,2.5,0,0,0-2.5,2.5V129a2.5,2.5,0,0,0,2.5,2.5h41.91a2.49,2.49,0,0,0,2.41-1.84,19.14,19.14,0,0,1,36.89,0v0s0,0,0,0a2.5,2.5,0,0,0,2.39,1.79h15.84a2.49,2.49,0,0,0,2.5-2.5Zm-16.46,27.58a.36.36,0,0,0,0-.09,23.17,23.17,0,0,0-2.48-4.89l-.47-.69-.47-.64a11.06,11.06,0,0,0-.81-1c-.23-.27-.46-.53-.7-.79a9.49,9.49,0,0,0-.7-.72c-.19-.2-.39-.39-.59-.57s-.69-.64-1.05-.93-.59-.47-.9-.7a22.43,22.43,0,0,0-3.22-2q-.48-.25-1-.48l-.69-.31c-.29-.13-.59-.26-.9-.37s-.48-.19-.73-.27l-.4-.14c-.44-.15-.89-.29-1.34-.4a5.66,5.66,0,0,0-.59-.15c-.4-.1-.81-.19-1.22-.26-.22,0-.45-.08-.67-.12s-.62-.1-.94-.13c-.6-.07-1.2-.12-1.81-.15l-1,0-1,0c-.61,0-1.21.08-1.81.15-.31,0-.63.08-.94.13s-.45.07-.67.12c-.41.07-.82.16-1.22.26-.24,0-.47.11-.7.18l-.82.24-.4.13-.41.14a13.55,13.55,0,0,0-1.33.52l-.53.23a22.22,22.22,0,0,0-3,1.58l-.3.19c-.35.23-.7.46-1,.71s-.67.5-1,.76l-.48.4a3.48,3.48,0,0,0-.3.26q-.36.3-.69.63-.51.48-1,1c-.32.33-.62.67-.91,1s-.35.43-.52.65l-.37.48c-.17.22-.34.46-.5.69l-.07.11-.39.59-.42.68c-.16.27-.31.55-.46.83a7.49,7.49,0,0,0-.36.69q-.26.49-.48,1c-.21.48-.41,1-.59,1.46H211.11V53.16h58.67l4.66,15.19,1,3.23a2.5,2.5,0,0,0,.92,1.29l.66.48L299.9,90.1l5.61,4.1v5.39l0,8.11,0,18.82ZM206.11,90.1v5h5v-5Zm0,0v5h5v-5Zm2.5-16.75a2.5,2.5,0,0,1-2.5-2.5V95.1h5V73.35Zm0,0a2.5,2.5,0,0,1-2.5-2.5V95.1h5V73.35Z"/><path class="cls-2" d="M305.57,126.52H294.06a.36.36,0,0,0,0-.09,23.17,23.17,0,0,0-2.48-4.89c-.15-.24-.3-.47-.47-.69s-.3-.43-.47-.64a11.06,11.06,0,0,0-.81-1c-.22-.27-.45-.53-.7-.79a9.49,9.49,0,0,0-.7-.72,6.37,6.37,0,0,0-.59-.57q-.51-.5-1.05-.93c-.3-.24-.59-.48-.9-.7a22.43,22.43,0,0,0-3.22-2q-.47-.25-1-.48l-.69-.31c-.29-.13-.59-.26-.9-.37s-.48-.19-.73-.27l-.4-.14c-.44-.15-.89-.28-1.34-.4-.2-.06-.39-.11-.59-.15-.4-.1-.81-.19-1.22-.26-.22,0-.45-.09-.67-.12s-.62-.1-.94-.13c-.6-.07-1.2-.12-1.81-.15l-1,0-1,0c-.61,0-1.21.08-1.81.15-.31,0-.63.08-.94.13s-.45.07-.67.12c-.41.07-.82.16-1.22.26-.24,0-.47.11-.7.18s-.55.15-.82.24l-.4.13-.41.14a13.55,13.55,0,0,0-1.33.52,3.54,3.54,0,0,0-.53.23,22.22,22.22,0,0,0-3,1.58l-.3.19c-.35.22-.69.46-1,.71s-.67.49-1,.76l-.48.4a3.48,3.48,0,0,0-.3.26c-.24.2-.46.41-.69.63s-.67.65-1,1-.62.67-.91,1-.35.43-.52.65l-.37.48c-.17.22-.33.46-.5.69l-.07.11-.39.59-.42.68c-.16.27-.32.55-.46.83s-.25.46-.36.69-.33.67-.48,1-.41,1-.59,1.46H211.11V107.7h94.43Z"/><polygon class="cls-2" points="305.52 99.59 305.52 102.7 211.11 102.7 211.11 95.1 305.51 95.1 305.52 99.59"/><path class="cls-2" d="M277,73.35h-65.9V90.1H299.9Zm-43.1,11.38H218.85a2.5,2.5,0,0,1,0-5h15.06a2.5,2.5,0,0,1,0,5Z"/><polygon class="cls-2" points="274.44 68.35 211.11 68.35 211.11 53.16 269.78 53.16 274.44 68.35"/><path class="cls-1" d="M280.33,70.85a2.5,2.5,0,0,1-2.5,2.5H208.61a2.5,2.5,0,0,1,0-5h69.22A2.5,2.5,0,0,1,280.33,70.85Z"/><path class="cls-1" d="M236.41,82.23a2.5,2.5,0,0,1-2.5,2.5H218.85a2.5,2.5,0,0,1,0-5h15.06A2.5,2.5,0,0,1,236.41,82.23Z"/><path class="cls-1" d="M278.06,127.14a10.16,10.16,0,1,0,3.48,7.66A10.16,10.16,0,0,0,278.06,127.14ZM271.37,140a5.17,5.17,0,1,1,3.4-9.05,5.11,5.11,0,0,1,1.77,3.89A5.17,5.17,0,0,1,271.37,140Zm6.69-12.82a10.16,10.16,0,1,0,3.48,7.66A10.16,10.16,0,0,0,278.06,127.14ZM271.37,140a5.17,5.17,0,1,1,3.4-9.05,5.11,5.11,0,0,1,1.77,3.89A5.17,5.17,0,0,1,271.37,140Zm6.69-12.82a10.16,10.16,0,1,0,3.48,7.66A10.16,10.16,0,0,0,278.06,127.14ZM271.37,140a5.17,5.17,0,1,1,3.4-9.05,5.11,5.11,0,0,1,1.77,3.89A5.17,5.17,0,0,1,271.37,140Zm6.69-12.82a10.16,10.16,0,1,0,3.48,7.66A10.16,10.16,0,0,0,278.06,127.14ZM271.37,140a5.17,5.17,0,1,1,3.4-9.05,5.11,5.11,0,0,1,1.77,3.89A5.17,5.17,0,0,1,271.37,140Zm23.93-8.44a23.76,23.76,0,0,0-.66-3.17c-.18-.65-.39-1.29-.62-1.92a23.17,23.17,0,0,0-2.48-4.89l-.47-.69-.47-.64a11.06,11.06,0,0,0-.81-1c-.23-.27-.46-.53-.7-.79a9.49,9.49,0,0,0-.7-.72c-.19-.2-.39-.39-.59-.57s-.69-.64-1.05-.93-.59-.47-.9-.7a22.43,22.43,0,0,0-3.22-2q-.48-.25-1-.48l-.69-.31c-.29-.13-.59-.26-.9-.37s-.48-.19-.73-.27l-.4-.14c-.44-.15-.89-.29-1.34-.4a5.66,5.66,0,0,0-.59-.15c-.4-.1-.81-.19-1.22-.26-.22,0-.45-.08-.67-.12s-.62-.1-.94-.13c-.6-.07-1.2-.12-1.81-.15l-1,0-1,0c-.61,0-1.21.08-1.81.15-.31,0-.63.08-.94.13s-.45.07-.67.12c-.41.07-.82.16-1.22.26-.24,0-.47.11-.7.18l-.82.24-.4.13-.41.14a13.55,13.55,0,0,0-1.33.52l-.53.23a22.22,22.22,0,0,0-3,1.58l-.3.19c-.35.23-.7.46-1,.71s-.67.5-1,.76l-.48.4a3.48,3.48,0,0,0-.3.26q-.36.3-.69.63-.51.48-1,1c-.32.33-.62.67-.91,1s-.35.43-.52.65l-.37.48c-.17.22-.34.46-.5.69l-.07.11-.39.59-.42.68c-.16.27-.31.55-.46.83a7.49,7.49,0,0,0-.36.69q-.26.49-.48,1c-.21.48-.41,1-.59,1.46s-.41,1.2-.58,1.82a22.74,22.74,0,0,0-.67,3.18,23.88,23.88,0,0,0-.22,3.28,24.15,24.15,0,0,0,48.29,0A25.57,25.57,0,0,0,295.3,131.52Zm-23.93,22.42a19.14,19.14,0,1,1,18.45-24.26v0s0,0,0,0a19,19,0,0,1,.68,5.07A19.17,19.17,0,0,1,271.37,153.94Zm6.69-26.8a10.16,10.16,0,1,0,3.48,7.66A10.16,10.16,0,0,0,278.06,127.14ZM271.37,140a5.17,5.17,0,1,1,3.4-9.05,5.11,5.11,0,0,1,1.77,3.89A5.17,5.17,0,0,1,271.37,140Zm6.69-12.82a10.16,10.16,0,1,0,3.48,7.66A10.16,10.16,0,0,0,278.06,127.14ZM271.37,140a5.17,5.17,0,1,1,3.4-9.05,5.11,5.11,0,0,1,1.77,3.89A5.17,5.17,0,0,1,271.37,140Zm6.69-12.82a10.16,10.16,0,1,0,3.48,7.66A10.16,10.16,0,0,0,278.06,127.14ZM271.37,140a5.17,5.17,0,1,1,3.4-9.05,5.11,5.11,0,0,1,1.77,3.89A5.17,5.17,0,0,1,271.37,140Z"/><path class="cls-2" d="M289.84,129.73s0,0,0,0v0a19.13,19.13,0,1,0,.7,5.12A19,19,0,0,0,289.84,129.73ZM271.37,145a10.16,10.16,0,1,1,10.17-10.16A10.17,10.17,0,0,1,271.37,145Z"/><path class="cls-1" d="M278.06,127.14a10.16,10.16,0,1,0,3.48,7.66A10.16,10.16,0,0,0,278.06,127.14ZM271.37,140a5.17,5.17,0,1,1,3.4-9.05,5.11,5.11,0,0,1,1.77,3.89A5.17,5.17,0,0,1,271.37,140Z"/><path class="cls-2" d="M276.54,134.8a5.18,5.18,0,1,1-1.77-3.89A5.11,5.11,0,0,1,276.54,134.8Z"/></g></g></svg>