<svg xmlns="http://www.w3.org/2000/svg" viewBox="0 0 310.57 158.94"><defs><style>.cls-1{fill:#fff;}</style></defs><title>moterHomeWhite</title><g id="Layer_2" data-name="Layer 2"><g id="Layer_2-2" data-name="Layer 2"><path class="cls-1" d="M208.61,131.52H99.4A2.5,2.5,0,0,1,97,129.66a19.15,19.15,0,0,0-37,0,2.49,2.49,0,0,1-2.41,1.86H2.79A2.49,2.49,0,0,1,.29,129s0-9.83-.09-23.79l0-5.07c-.1-32-.25-80.46-.14-87.53a2.49,2.49,0,0,1,2.5-2.46H252.33c.42,0,38.79.92,38.79,40.48a2.5,2.5,0,0,1-2.5,2.5H211.11V129A2.5,2.5,0,0,1,208.61,131.52Zm-107.37-5H206.11V50.66a2.5,2.5,0,0,1,2.5-2.5h77.45c-1.53-32.12-32.42-33-33.77-33H5c-.07,12.23.07,55.53.16,85l0,5.06c0,9.78.06,17.53.08,21.3H55.73a24.15,24.15,0,0,1,45.51,0Z"/><path class="cls-1" d="M74.9,15.18H48.81a2.5,2.5,0,0,1-2.5-2.5V2.5A2.5,2.5,0,0,1,48.81,0H74.9a2.5,2.5,0,0,1,2.5,2.5V12.68A2.5,2.5,0,0,1,74.9,15.18Zm-23.59-5H72.4V5H51.31Z"/><path class="cls-1" d="M196.55,74.09H171.5a2.5,2.5,0,0,1-2.5-2.5V50.72a2.5,2.5,0,0,1,2.5-2.5h25.05a2.49,2.49,0,0,1,2.5,2.5V71.59A2.49,2.49,0,0,1,196.55,74.09Zm-22.55-5h20.05V53.22H174Z"/><path class="cls-1" d="M149.9,82.92H130.42a2.49,2.49,0,0,1-2.5-2.5V59.56a2.5,2.5,0,0,1,2.5-2.5H149.9a2.5,2.5,0,0,1,2.5,2.5V80.42A2.49,2.49,0,0,1,149.9,82.92Zm-17-5H147.4V62.06H132.92Z"/><path class="cls-1" d="M243.73,15.18H196.55a2.5,2.5,0,0,1-2.5-2.5V2.5a2.5,2.5,0,0,1,2.5-2.5h47.18a2.5,2.5,0,0,1,2.5,2.5V12.68A2.5,2.5,0,0,1,243.73,15.18Zm-44.68-5h42.18V5H199.05Z"/><path class="cls-1" d="M148.7,125.4H131.87a12.79,12.79,0,0,1-12.77-12.77V61a12.79,12.79,0,0,1,12.77-12.77H148.7A12.79,12.79,0,0,1,161.47,61v51.64A12.79,12.79,0,0,1,148.7,125.4ZM131.87,53.22A7.78,7.78,0,0,0,124.1,61v51.64a7.77,7.77,0,0,0,7.77,7.77H148.7a7.78,7.78,0,0,0,7.77-7.77V61a7.78,7.78,0,0,0-7.77-7.77Z"/><path class="cls-1" d="M95.9,84.81H32.67A12.67,12.67,0,0,1,20,72.16V60.92A12.66,12.66,0,0,1,32.67,48.28H95.9a12.66,12.66,0,0,1,12.65,12.64V72.16A12.66,12.66,0,0,1,95.9,84.81ZM32.67,53.28A7.65,7.65,0,0,0,25,60.92V72.16a7.66,7.66,0,0,0,7.65,7.65H95.9a7.66,7.66,0,0,0,7.65-7.65V60.92a7.65,7.65,0,0,0-7.65-7.64Z"/><path class="cls-1" d="M64.29,84.81a2.5,2.5,0,0,1-2.5-2.5V50.78a2.5,2.5,0,0,1,5,0V82.31A2.5,2.5,0,0,1,64.29,84.81Z"/><path class="cls-1" d="M121.6,107.73H2.7a2.5,2.5,0,0,1-2.5-2.49l0-12.82a2.51,2.51,0,0,1,2.5-2.51H121.6a2.5,2.5,0,0,1,2.5,2.5v12.82A2.5,2.5,0,0,1,121.6,107.73Zm-116.41-5H119.1V94.91H5.17Z"/><path class="cls-1" d="M308,107.7H159a2.5,2.5,0,0,1-2.5-2.5V92.6a2.49,2.49,0,0,1,2.5-2.5H308a2.49,2.49,0,0,1,2.5,2.5v12.6A2.5,2.5,0,0,1,308,107.7Zm-146.55-5h144V95.1h-144Z"/><path class="cls-1" d="M78.49,158.75a24.15,24.15,0,1,1,23.32-30.37,23.86,23.86,0,0,1,.82,6.22A24.18,24.18,0,0,1,78.49,158.75Zm0-43.29A19.15,19.15,0,1,0,97.63,134.6a18.79,18.79,0,0,0-.65-4.93A19.14,19.14,0,0,0,78.49,115.46Z"/><path class="cls-1" d="M78.49,144.77A10.17,10.17,0,1,1,88.65,134.6,10.18,10.18,0,0,1,78.49,144.77Zm0-15.33A5.15,5.15,0,1,0,82,130.83,5.17,5.17,0,0,0,78.49,129.44Z"/><path class="cls-1" d="M308.07,131.52H292.23a2.49,2.49,0,0,1-2.41-1.84,19.14,19.14,0,0,0-36.89,0,2.5,2.5,0,0,1-2.41,1.84H208.61a2.5,2.5,0,0,1-2.5-2.5V50.66a2.5,2.5,0,0,1,2.5-2.5h63A2.5,2.5,0,0,1,274,49.93L280,69.32l29.53,21.59a2.5,2.5,0,0,1,1,2l.06,36.09a2.49,2.49,0,0,1-.73,1.77A2.52,2.52,0,0,1,308.07,131.52Zm-14-5h11.51l-.05-32.32L276.34,72.87a2.54,2.54,0,0,1-.91-1.29l-5.65-18.42H211.11v73.36h37.58a24.15,24.15,0,0,1,45.36,0Z"/><path class="cls-1" d="M277.82,73.35H208.61a2.5,2.5,0,0,1,0-5h69.21a2.5,2.5,0,0,1,0,5Z"/><path class="cls-1" d="M233.91,84.73H218.84a2.5,2.5,0,0,1,0-5h15.07a2.5,2.5,0,0,1,0,5Z"/><path class="cls-1" d="M271.37,158.94a24.14,24.14,0,1,1,23.27-30.59,23.91,23.91,0,0,1,.88,6.45A24.17,24.17,0,0,1,271.37,158.94Zm0-43.28a19.17,19.17,0,0,0-18.44,14,18.66,18.66,0,0,0-.7,5.12,19.15,19.15,0,0,0,38.29,0,18.8,18.8,0,0,0-.7-5.1v0A19.18,19.18,0,0,0,271.37,115.66Zm0,29.3a10.16,10.16,0,1,1,10.17-10.16A10.17,10.17,0,0,1,271.37,145Zm0-15.33a5.18,5.18,0,1,0,3.4,1.28A5.15,5.15,0,0,0,271.37,129.63Z"/><path class="cls-1" d="M271.37,145a10.16,10.16,0,1,1,10.17-10.16A10.17,10.17,0,0,1,271.37,145Zm0-15.33a5.18,5.18,0,1,0,3.4,1.28A5.15,5.15,0,0,0,271.37,129.63Z"/></g></g></svg>