<svg xmlns="http://www.w3.org/2000/svg" viewBox="0 0 124.18 224.54"><defs><style>.cls-1{fill:#fff;}.cls-2{fill:#1d1831;}</style></defs><title>questionMarkFill_1</title><g id="Layer_2" data-name="Layer 2"><g id="Layer_2-2" data-name="Layer 2"><path class="cls-1" d="M77.39,207.41A14.82,14.82,0,0,0,74,198.9c-4.44-5.11-11.08-4.8-12.79-4.63a14.9,14.9,0,0,0-6.88,2.1,15.92,15.92,0,0,0-6.93,17C49,220,54.17,224,61.54,224.41a16.23,16.23,0,0,0,2,.13c5.13,0,9.47-2.78,12.14-7.85A16.81,16.81,0,0,0,77.39,207.41Zm-9.72,5.08h0c-1.6,3-3.37,3.22-5.06,3l-.49-.05c-4.42-.17-5.51-2.32-5.95-4.18A7,7,0,0,1,59,204.06a5.83,5.83,0,0,1,2.77-.8l.33,0s.29,0,.71,0a5.92,5.92,0,0,1,4.4,1.6,6.05,6.05,0,0,1,1.2,3.49A7.71,7.71,0,0,1,67.67,212.49Z"/><path class="cls-2" d="M67.67,212.49h0c-1.6,3-3.37,3.22-5.06,3l-.49-.05c-4.42-.17-5.51-2.32-5.95-4.18A7,7,0,0,1,59,204.06a5.83,5.83,0,0,1,2.77-.8l.33,0s.29,0,.71,0a5.92,5.92,0,0,1,4.4,1.6,6.05,6.05,0,0,1,1.2,3.49A7.71,7.71,0,0,1,67.67,212.49Z"/><path class="cls-1" d="M123.61,55.94a73.66,73.66,0,0,0-3.39-14.64c-6.37-18.4-19.06-31.06-37.71-37.63l-.1,0A73.56,73.56,0,0,0,73,1.24,59.23,59.23,0,0,0,52.47.65,55,55,0,0,0,40.39,4.12l-1,.4C22.92,10.76,11.27,22.26,4.71,38.7.48,48.19-.88,57,.55,65.63c1.21,6.61,5.8,10.84,12.66,11.61a14.93,14.93,0,0,0,9.31-1.56C27.18,73,28.5,68,29.29,65l.05-.2c2.14-8,5.08-19,11-25.62a23.91,23.91,0,0,1,5.2-4.33,34.12,34.12,0,0,1,7.92-3.05A36.12,36.12,0,0,1,74,32.92a35.51,35.51,0,0,1,5.56,2.53,35.68,35.68,0,0,1,5,4.48,35.62,35.62,0,0,1,9.16,29.22l0,.18a31.14,31.14,0,0,1-7.78,18.09,29.78,29.78,0,0,1-8,6.16A42,42,0,0,0,57,111.45l-4.19,7.93-.08.16a55,55,0,0,0-5.4,22.81c-1.47,10.1,2.15,16.28,11.06,18.9l.38.09a20.67,20.67,0,0,0,4,.42,13.58,13.58,0,0,0,8.93-3c3.85-3.2,5.77-8.5,5.71-15.75a29.64,29.64,0,0,1,2-7.85,33,33,0,0,1,8.32-11.66,26,26,0,0,1,5.9-4.13c1.32-.74,2.82-1.57,4.68-2.83,13.7-9.27,20-23.29,22-28.87A67.33,67.33,0,0,0,123.94,71h0A72.85,72.85,0,0,0,123.61,55.94ZM115,70.18a58,58,0,0,1-3.07,14.34c-1.76,4.77-7.1,16.73-18.63,24.53-1.54,1-2.8,1.75-4,2.43a35.46,35.46,0,0,0-7.61,5.36,42.06,42.06,0,0,0-10.59,14.95,38.81,38.81,0,0,0-2.58,10.54l0,.25v.26c.07,4.41-.81,7.6-2.46,9-1.13.94-2.89,1.19-5.23.75-4-1.2-5.45-2.8-4.47-9.15l.05-.62a46.08,46.08,0,0,1,4.49-19.29l4-7.58a33.05,33.05,0,0,1,16.57-14l.46-.21a38.29,38.29,0,0,0,10.69-8.19,39.92,39.92,0,0,0,10.09-23.2A44.83,44.83,0,0,0,84.69,28l-.42-.28a43.82,43.82,0,0,0-7.22-3.32,45.18,45.18,0,0,0-25.72-1.38A43.21,43.21,0,0,0,41.19,27l-.23.13a32.81,32.81,0,0,0-7.29,6.05c-7.39,8.24-10.65,20.42-13,29.34l-.05.19c-.52,2-1.16,4.38-2.58,5.2a6.63,6.63,0,0,1-3.74.4h-.13c-2.79-.31-4.25-1.63-4.72-4.21-1.15-6.9,0-13.83,3.55-21.79l.07-.18c5.66-14.24,15.3-23.78,29.5-29.17l1.1-.43a47.51,47.51,0,0,1,10.24-3,50.14,50.14,0,0,1,17.51.57,62.66,62.66,0,0,1,8.17,2.07c16.14,5.7,26.66,16.2,32.15,32.06a63.68,63.68,0,0,1,3,12.83A64.49,64.49,0,0,1,115,70.18Z"/><path class="cls-1" d="M123.61,55.94a73.66,73.66,0,0,0-3.39-14.64c-6.37-18.4-19.06-31.06-37.71-37.63l-.1,0A73.56,73.56,0,0,0,73,1.24,59.23,59.23,0,0,0,52.47.65,55,55,0,0,0,40.39,4.12l-1,.4C22.92,10.76,11.27,22.26,4.71,38.7.48,48.19-.88,57,.55,65.63c1.21,6.61,5.8,10.84,12.66,11.61a14.93,14.93,0,0,0,9.31-1.56C27.18,73,28.5,68,29.29,65l.05-.2c2.14-8,5.08-19,11-25.62a23.91,23.91,0,0,1,5.2-4.33,34.12,34.12,0,0,1,7.92-3.05A36.12,36.12,0,0,1,74,32.92a35.51,35.51,0,0,1,5.56,2.53,35.68,35.68,0,0,1,5,4.48,35.62,35.62,0,0,1,9.16,29.22l0,.18a31.14,31.14,0,0,1-7.78,18.09,29.78,29.78,0,0,1-8,6.16A42,42,0,0,0,57,111.45l-4.19,7.93-.08.16a55,55,0,0,0-5.4,22.81c-1.47,10.1,2.15,16.28,11.06,18.9l.38.09a20.67,20.67,0,0,0,4,.42,13.58,13.58,0,0,0,8.93-3c3.85-3.2,5.77-8.5,5.71-15.75a29.64,29.64,0,0,1,2-7.85,33,33,0,0,1,8.32-11.66,26,26,0,0,1,5.9-4.13c1.32-.74,2.82-1.57,4.68-2.83,13.7-9.27,20-23.29,22-28.87A67.33,67.33,0,0,0,123.94,71h0A72.85,72.85,0,0,0,123.61,55.94ZM115,70.18a58,58,0,0,1-3.07,14.34c-1.76,4.77-7.1,16.73-18.63,24.53-1.54,1-2.8,1.75-4,2.43a35.46,35.46,0,0,0-7.61,5.36,42.06,42.06,0,0,0-10.59,14.95,38.81,38.81,0,0,0-2.58,10.54l0,.25v.26c.07,4.41-.81,7.6-2.46,9-1.13.94-2.89,1.19-5.23.75-4-1.2-5.45-2.8-4.47-9.15l.05-.62a46.08,46.08,0,0,1,4.49-19.29l4-7.58a33.05,33.05,0,0,1,16.57-14l.46-.21a38.29,38.29,0,0,0,10.69-8.19,39.92,39.92,0,0,0,10.09-23.2A44.83,44.83,0,0,0,84.69,28l-.42-.28a43.82,43.82,0,0,0-7.22-3.32,45.18,45.18,0,0,0-25.72-1.38A43.21,43.21,0,0,0,41.19,27l-.23.13a32.81,32.81,0,0,0-7.29,6.05c-7.39,8.24-10.65,20.42-13,29.34l-.05.19c-.52,2-1.16,4.38-2.58,5.2a6.63,6.63,0,0,1-3.74.4h-.13c-2.79-.31-4.25-1.63-4.72-4.21-1.15-6.9,0-13.83,3.55-21.79l.07-.18c5.66-14.24,15.3-23.78,29.5-29.17l1.1-.43a47.51,47.51,0,0,1,10.24-3,50.14,50.14,0,0,1,17.51.57,62.66,62.66,0,0,1,8.17,2.07c16.14,5.7,26.66,16.2,32.15,32.06a63.68,63.68,0,0,1,3,12.83A64.49,64.49,0,0,1,115,70.18Z"/><path class="cls-2" d="M115,70.18a58,58,0,0,1-3.07,14.34c-1.76,4.77-7.1,16.73-18.63,24.53-1.54,1-2.8,1.75-4,2.43a35.46,35.46,0,0,0-7.61,5.36,42.06,42.06,0,0,0-10.59,14.95,38.81,38.81,0,0,0-2.58,10.54l0,.25v.26c.07,4.41-.81,7.6-2.46,9-1.13.94-2.89,1.19-5.23.75-4-1.2-5.45-2.8-4.47-9.15l.05-.62a46.08,46.08,0,0,1,4.49-19.29l4-7.58a33.05,33.05,0,0,1,16.57-14l.46-.21a38.29,38.29,0,0,0,10.69-8.19,39.92,39.92,0,0,0,10.09-23.2A44.83,44.83,0,0,0,84.69,28l-.42-.28a43.82,43.82,0,0,0-7.22-3.32,45.18,45.18,0,0,0-25.72-1.38A43.21,43.21,0,0,0,41.19,27l-.23.13a32.81,32.81,0,0,0-7.29,6.05c-7.39,8.24-10.65,20.42-13,29.34l-.05.19c-.52,2-1.16,4.38-2.58,5.2a6.63,6.63,0,0,1-3.74.4h-.13c-2.79-.31-4.25-1.63-4.72-4.21-1.15-6.9,0-13.83,3.55-21.79l.07-.18c5.66-14.24,15.3-23.78,29.5-29.17l1.1-.43a47.51,47.51,0,0,1,10.24-3,50.14,50.14,0,0,1,17.51.57,62.66,62.66,0,0,1,8.17,2.07c16.14,5.7,26.66,16.2,32.15,32.06a63.68,63.68,0,0,1,3,12.83A64.49,64.49,0,0,1,115,70.18Z"/></g></g></svg>