<svg xmlns="http://www.w3.org/2000/svg" viewBox="0 0 620.58 243.75"><defs><style>.cls-1{fill:#fff;}</style></defs><title>smallCarWhite</title><g id="Layer_2" data-name="Layer 2"><g id="Layer_2-2" data-name="Layer 2"><path class="cls-1" d="M.12,160.54a27.18,27.18,0,0,0,27.1,27.08c13.66.17,27.33,0,41,0h4.45c.92,2.93,1.72,5.85,2.5,8.7,1.56,5.61,3.09,11,5.6,15.88s6.08,9.43,9.72,14c1,1,2,1.95,3,2.87a57.23,57.23,0,0,0,37.65,14.62h.32l2,0H134c28.53-.72,52.18-23.06,55-51.56.13-1.3.38-2.58.61-4.14h247a66.9,66.9,0,0,0,1.81,11.7c.19.77.38,1.54.6,2.3.13.46.27.91.41,1.36q.12.42.27.84c.13.39.26.78.4,1.17a59.29,59.29,0,0,0,15.94,23.78,57.23,57.23,0,0,0,37.65,14.62h.07a63.59,63.59,0,0,0,25.55-5.66l.16-.08a54.52,54.52,0,0,0,24.52-22.65A63.83,63.83,0,0,0,551.57,193v0c.14-1,.26-2,.37-3,0-.49.18-1,.42-2.24h5.16q23.51,0,47,0c6.29,0,7.86-1.45,8.32-7.87,1.27-17.77-.43-35-10.83-51.71,5,0,8.75,0,12.53,0s6-2.06,6-5.85c.1-9.83.06-19.66.05-29.49,0-3.88-2.53-5.73-5.84-6.47-14.44-3.19-28.79-7.18-43.41-9.18-34.25-4.69-68.49-3-102.58,2.39a18.19,18.19,0,0,1-2,0c-.53-1.71-1.13-3.54-1.65-5.4a115.46,115.46,0,0,0-15.7-34.38C431.82,14,407.21,1.12,376.37.13L218.43,0c-52.61.75-80.34,35.53-91.11,74.06-1.36,4.87-3,6.87-8.27,6.43-6.45-.53-13,.41-19.48-.19-27.94-2.62-54,6.16-80.42,12.82C7.83,96,.25,106.77.12,118.54Q-.12,139.54.12,160.54Zm603-67.34c2.75,1.88,6.21,3,6.35,4.55.63,6.32.27,12.73.27,19.31h-6.62ZM237.88,80.11H136.65c7-24.71,18.58-45.27,40.6-58.53,18.88-11.38,39.61-11.71,60.63-10.49ZM343,79.91H249.16V11.09H343Zm112.48.15H354.29v-69c25.88-1.71,50.3.17,70.79,17.59C441,42.21,450,59.78,455.51,80.06Zm-7.78,106.18A46.73,46.73,0,1,1,494.36,233,46.59,46.59,0,0,1,447.73,186.24ZM85,185.91A46.79,46.79,0,1,1,131.41,233,46.79,46.79,0,0,1,85,185.91ZM10.88,120.34c0-9.32,4.79-15.36,13.84-17.62,10.82-2.71,21.75-5,32.48-8C67.75,91.67,78.39,91,89.28,91q184.47.21,368.94.13c3.15,0,6.32-.27,9.46-.56,18.89-1.74,37.75-4.16,56.68-5.11A249,249,0,0,1,588,90.62c1.52.32,3.87,2,3.92,3.11.35,7.62.18,15.27.18,22.78-9.7,2.9-10.42,5.89-3.51,12.72,6,5.89,9.52,13.06,11.6,21.83h-5.31c-7.5,0-15,0-22.5,0-3.83,0-7.33.65-7.43,5.35s3.33,5.52,7.21,5.49c5.66-.06,11.33,0,17,0H602v14.8H551.43c-.42-1.63-.7-2.76-1-3.88s-.68-2.46-1.07-3.66a1.43,1.43,0,0,0-.09-.27,61.45,61.45,0,0,0-6.09-13.15c-.21-.34-.43-.68-.65-1-.38-.59-.78-1.18-1.19-1.76a56.31,56.31,0,0,0-42.46-24.06c-.33,0-.65-.05-1-.06l-.79-.05-1.2,0-1.48,0h0l-1.46,0-1.27,0-1,.06A56.41,56.41,0,0,0,446.12,155c-.17.26-.33.52-.49.78a60.48,60.48,0,0,0-7.09,17.08,9.61,9.61,0,0,1-.29,1s0,0,0,0c-1.16,3.28-3.26,3.05-6.06,3q-118.23,0-236.45.11c-4.31,0-6.54-.8-8-4.21a17,17,0,0,1-.74-2.25,53.82,53.82,0,0,0-3-8.42,2.41,2.41,0,0,0-.15-.33c-8.46-18.62-26.93-31.62-47.24-32.93l-.24,0a60.9,60.9,0,0,0-29,5.23l-1.19.56a55.59,55.59,0,0,0-25,24.22q-.3.54-.57,1.08c-.62,1.23-1.19,2.48-1.73,3.77-1,2.3-1.74,4.67-2.52,7.14-.62,1.95-1.23,4-1.92,6H30.19c-1.66,0-3.34,0-5-.15-6.53-.62-15-8.33-13.38-14.87,9.24,0,18.56-.06,27.87,0,4.05,0,7.84-.6,7.74-5.51s-4-5.41-8-5.33c-4.17.1-8.33,0-12.5,0H10.87C10.87,140.29,10.82,130.31,10.88,120.34Z"/><path class="cls-1" d="M307.75,116.8H548.19c6.92,0,9.5-1.41,9.61-5.22S555.06,106,548,106H68.08c-7.47,0-9.95,1.3-10,5.27s2.4,5.5,9.76,5.5Z"/><path class="cls-1" d="M387.14,128.69c-4.47,0-8.95,0-13.43,0-3.6,0-6.37,1.19-6.5,5.18s2.58,5.58,6.15,5.62c9.12.09,18.24.06,27.36,0,3.4,0,5.94-1.66,6-5.26.08-3.88-2.41-5.53-6.15-5.51C396.1,128.71,391.62,128.7,387.14,128.69Z"/><path class="cls-1" d="M268.76,128.7c-4.5,0-9,0-13.5,0-3.7,0-6.27,1.39-6.26,5.42,0,3.74,2.5,5.29,5.92,5.33,9.16.08,18.33.06,27.49,0,3.48,0,6-1.72,6.07-5.26.07-3.83-2.43-5.56-6.23-5.51C277.76,128.74,273.26,128.7,268.76,128.7Z"/><path class="cls-1" d="M524.57,186.32A30.14,30.14,0,1,1,494.45,156,30.16,30.16,0,0,1,524.57,186.32ZM513.76,186a19.33,19.33,0,1,0-19.27,19.56A19.57,19.57,0,0,0,513.76,186Z"/><path class="cls-1" d="M131.26,156a30.16,30.16,0,1,1-29.48,30.85A30.19,30.19,0,0,1,131.26,156Zm.32,10.78a19.37,19.37,0,1,0,19.55,19.25A19.46,19.46,0,0,0,131.58,166.82Z"/><rect class="cls-1" x="193.87" y="39.68" width="10.91" height="31.92" rx="5.46" transform="translate(379.62 -45.96) rotate(135)"/><rect class="cls-1" x="298.64" y="21.95" width="10.91" height="53.28" rx="5.46" transform="translate(553.47 -132.08) rotate(135)"/></g></g></svg>