<svg xmlns="http://www.w3.org/2000/svg" viewBox="0 0 620.59 243.75"><defs><style>.cls-1{fill:#fff;}.cls-2{fill:#1d1831;}</style></defs><title>smallCarWhiteFill</title><g id="Layer_2" data-name="Layer 2"><g id="Layer_2-2" data-name="Layer 2"><path class="cls-1" d="M.12,160.54a27.18,27.18,0,0,0,27.09,27.08c13.67.17,27.34,0,41,0h4.46c.92,2.93,1.72,5.85,2.5,8.7,1.55,5.61,3.09,11,5.6,15.88s6.08,9.43,9.72,14c1,1,2,1.95,3,2.87a57.26,57.26,0,0,0,37.66,14.62h.32l2,0H134c28.53-.72,52.17-23.06,55-51.56.13-1.3.38-2.58.61-4.14h247a67.85,67.85,0,0,0,1.8,11.7c.2.77.39,1.54.61,2.3.12.46.27.91.41,1.36q.12.42.27.84c.13.39.26.78.4,1.17a59.29,59.29,0,0,0,15.94,23.78,57.23,57.23,0,0,0,37.65,14.62h.07a63.63,63.63,0,0,0,25.55-5.66l.16-.08a54.52,54.52,0,0,0,24.52-22.65A63.83,63.83,0,0,0,551.57,193v0c.13-1,.26-2,.37-3,0-.49.18-1,.42-2.24h5.16q23.51,0,47,0c6.29,0,7.86-1.45,8.32-7.87,1.27-17.77-.43-35-10.83-51.71,5,0,8.75,0,12.53,0s6-2.06,6-5.85c.1-9.83.06-19.66.05-29.49,0-3.88-2.53-5.73-5.85-6.47-14.43-3.19-28.78-7.18-43.4-9.18-34.25-4.69-68.49-3-102.58,2.39a18.34,18.34,0,0,1-2.05,0c-.52-1.71-1.12-3.54-1.64-5.4a115.46,115.46,0,0,0-15.7-34.38C431.82,14,407.2,1.12,376.37.13L218.43,0c-52.61.75-80.34,35.53-91.11,74.06-1.37,4.87-3,6.87-8.27,6.43-6.45-.53-13,.41-19.48-.19-27.94-2.62-54,6.16-80.42,12.82C7.83,96,.25,106.77.12,118.54Q-.13,139.54.12,160.54Zm603-67.34c2.75,1.88,6.21,3,6.34,4.55.64,6.32.28,12.73.28,19.31h-6.62ZM237.88,80.11H136.65c7-24.71,18.57-45.27,40.6-58.53,18.88-11.38,39.61-11.71,60.63-10.49ZM343,79.91H249.16V11.09H343Zm112.48.15H354.29v-69c25.88-1.71,50.3.17,70.79,17.59C441,42.21,450,59.78,455.51,80.06Zm-7.79,106.18A46.74,46.74,0,1,1,494.36,233,46.6,46.6,0,0,1,447.72,186.24ZM85,185.91A46.79,46.79,0,1,1,131.41,233,46.78,46.78,0,0,1,85,185.91ZM10.88,120.34c0-9.32,4.79-15.36,13.83-17.62,10.83-2.71,21.75-5,32.48-8,10.56-3,21.2-3.65,32.09-3.64q184.47.21,368.93.13c3.16,0,6.33-.27,9.47-.56,18.89-1.74,37.75-4.16,56.68-5.11A249,249,0,0,1,588,90.62c1.52.32,3.88,2,3.93,3.11.34,7.62.18,15.27.18,22.78-9.7,2.9-10.42,5.89-3.51,12.72,6,5.89,9.52,13.06,11.6,21.83h-5.31c-7.5,0-15,0-22.5,0-3.83,0-7.33.65-7.43,5.35s3.33,5.52,7.21,5.49c5.66-.06,11.32,0,17,0H602v14.8H551.43c-.42-1.63-.71-2.76-1-3.88s-.68-2.46-1.07-3.66a1.43,1.43,0,0,0-.09-.27,61.94,61.94,0,0,0-6.09-13.15c-.22-.34-.43-.68-.65-1-.38-.59-.78-1.18-1.19-1.76a56.31,56.31,0,0,0-42.46-24.06c-.33,0-.65-.05-1-.06l-.79-.05-1.2,0-1.48,0h0l-1.46,0-1.27,0-1,.06A56.41,56.41,0,0,0,446.12,155c-.18.26-.33.52-.49.78a60.48,60.48,0,0,0-7.09,17.08c-.1.36-.18.68-.29,1,0,0,0,0,0,0-1.16,3.28-3.27,3.05-6.06,3q-118.23,0-236.46.11c-4.3,0-6.53-.8-8-4.21a17,17,0,0,1-.74-2.25,53.82,53.82,0,0,0-3-8.42c0-.11-.1-.22-.15-.33-8.47-18.62-26.94-31.62-47.24-32.93l-.24,0a60.9,60.9,0,0,0-29,5.23l-1.2.56a55.62,55.62,0,0,0-25,24.22c-.21.36-.39.72-.57,1.08-.63,1.23-1.19,2.48-1.73,3.77-1,2.3-1.74,4.67-2.52,7.14-.63,1.95-1.23,4-1.92,6H30.19c-1.66,0-3.34,0-5-.15-6.52-.62-15-8.33-13.37-14.87,9.24,0,18.56-.06,27.87,0,4.05,0,7.84-.6,7.74-5.51s-4-5.41-8-5.33c-4.16.1-8.32,0-12.5,0H10.87C10.87,140.29,10.82,130.31,10.88,120.34Z"/><path class="cls-2" d="M447.72,186.24a46.74,46.74,0,1,0,46.56-46.75A46.73,46.73,0,0,0,447.72,186.24Zm16.58.06a30.14,30.14,0,1,1,29.87,30A30.23,30.23,0,0,1,464.3,186.3Z"/><path class="cls-2" d="M85,185.91a46.79,46.79,0,1,0,47-46.43A46.91,46.91,0,0,0,85,185.91Zm16.77,1a30.08,30.08,0,1,1,30.35,29.47A30,30,0,0,1,101.78,186.89Z"/><path class="cls-2" d="M603.13,93.2v23.86h6.62c0-6.58.36-13-.28-19.31C609.34,96.25,605.88,95.08,603.13,93.2Z"/><path class="cls-2" d="M47.43,156.37c.1,4.91-3.69,5.55-7.74,5.51-9.31-.09-18.63,0-27.87,0-1.63,6.54,6.85,14.25,13.37,14.87,1.66.16,3.34.15,5,.15H74.43c.69-2.07,1.29-4.08,1.92-6,.78-2.47,1.56-4.84,2.52-7.14.54-1.29,1.1-2.54,1.73-3.77.18-.36.36-.72.57-1.08a55.62,55.62,0,0,1,25-24.22l1.2-.56a60.9,60.9,0,0,1,29-5.23l.24,0c20.3,1.31,38.77,14.31,47.24,32.93.05.11.11.22.15.33a53.82,53.82,0,0,1,3,8.42,17,17,0,0,0,.74,2.25c1.43,3.41,3.66,4.22,8,4.21q118.23-.25,236.46-.11c2.79,0,4.9.24,6.06-3,0,0,0,0,0,0,.11-.3.19-.62.29-1a60.48,60.48,0,0,1,7.09-17.08c.16-.26.31-.52.49-.78a56.41,56.41,0,0,1,44.55-26.16l1-.06,1.27,0,1.46,0h0l1.48,0,1.2,0,.79.05c.33,0,.65,0,1,.06a56.31,56.31,0,0,1,42.46,24.06c.41.58.81,1.17,1.19,1.76.22.33.43.67.65,1a61.94,61.94,0,0,1,6.09,13.15,1.43,1.43,0,0,1,.09.27c.39,1.2.75,2.42,1.07,3.66s.57,2.25,1,3.88H602v-14.8H589.12c-5.68,0-11.34,0-17,0-3.88,0-7.31-.75-7.21-5.49s3.6-5.37,7.43-5.35c7.5.05,15,0,22.5,0h5.31c-2.08-8.77-5.64-15.94-11.6-21.83-6.91-6.83-6.19-9.82,3.51-12.72,0-7.51.16-15.16-.18-22.78,0-1.12-2.41-2.79-3.93-3.11a249,249,0,0,0-63.59-5.13c-18.93,1-37.79,3.37-56.68,5.11-3.14.29-6.31.56-9.47.56q-184.45,0-368.93-.13c-10.89,0-21.53.64-32.09,3.64-10.73,3-21.65,5.34-32.48,8-9,2.26-13.78,8.3-13.83,17.62-.06,10,0,19.95,0,30.72H26.94c4.18,0,8.34.08,12.5,0C43.43,151,47.33,151.47,47.43,156.37Zm319.78-22.51c.13-4,2.89-5.21,6.5-5.18,4.48,0,9,0,13.43,0s9,0,13.43,0c3.75,0,6.24,1.63,6.16,5.51-.07,3.61-2.61,5.24-6,5.27-9.12.08-18.25.1-27.36,0C369.79,139.44,367.09,137.84,367.21,133.86ZM249,134.11c0-4,2.56-5.44,6.26-5.42,4.5,0,9,0,13.5,0s9,.05,13.49,0c3.8-.05,6.3,1.68,6.23,5.51-.07,3.55-2.6,5.25-6.07,5.27-9.17,0-18.33.05-27.49,0C251.5,139.41,249,137.85,249,134.11ZM58.05,111.3c.08-4,2.56-5.27,10-5.27H548c7.1,0,9.95,1.61,9.83,5.55s-2.68,5.22-9.6,5.22H67.81C60.45,116.8,58,115.4,58.05,111.3Z"/><path class="cls-2" d="M354.29,11.09v69H455.51C450,59.78,441,42.21,425.08,28.68,404.59,11.26,380.17,9.38,354.29,11.09Z"/><path class="cls-2" d="M249.16,11.09V79.91H343V11.09Zm36.09,18.66a5.46,5.46,0,0,1,7.72,0l30,30a5.46,5.46,0,0,1-7.72,7.71l-30-30A5.46,5.46,0,0,1,285.25,29.75Z"/><path class="cls-2" d="M136.65,80.11H237.88v-69c-21-1.22-41.75-.89-60.63,10.49C155.22,34.84,143.69,55.4,136.65,80.11ZM188,44.36a5.45,5.45,0,0,1,7.71,0l14.86,14.86a5.46,5.46,0,0,1-7.72,7.71L188,52.08A5.46,5.46,0,0,1,188,44.36Z"/><path class="cls-1" d="M58.05,111.3c-.09,4.1,2.4,5.5,9.76,5.5H548.19c6.92,0,9.5-1.41,9.6-5.22S555.06,106,548,106H68.08C60.61,106,58.13,107.34,58.05,111.3Z"/><path class="cls-1" d="M367.21,133.86c-.12,4,2.58,5.58,6.15,5.62,9.11.09,18.24.07,27.36,0,3.4,0,5.94-1.66,6-5.27.08-3.88-2.41-5.53-6.16-5.51-4.47,0-8.95,0-13.43,0s-8.95,0-13.43,0C370.1,128.65,367.34,129.87,367.21,133.86Z"/><path class="cls-1" d="M249,134.11c0,3.74,2.5,5.3,5.92,5.33,9.16.08,18.32.06,27.49,0,3.47,0,6-1.72,6.07-5.27.07-3.83-2.43-5.56-6.23-5.51-4.49.06-9,0-13.49,0s-9,0-13.5,0C251.56,128.67,249,130.08,249,134.11Z"/><path class="cls-1" d="M464.3,186.3A30.14,30.14,0,1,0,494.45,156,30.19,30.19,0,0,0,464.3,186.3Zm10.8.33a19.33,19.33,0,1,1,19.39,18.94A19.63,19.63,0,0,1,475.1,186.63Z"/><path class="cls-2" d="M475.1,186.63a19.33,19.33,0,1,0,19-19.81A19.59,19.59,0,0,0,475.1,186.63Z"/><path class="cls-1" d="M101.78,186.89A30.08,30.08,0,1,0,131.25,156,30,30,0,0,0,101.78,186.89Zm10.77-.33a19.29,19.29,0,1,1,19.26,19A19.44,19.44,0,0,1,112.55,186.56Z"/><path class="cls-2" d="M112.55,186.56a19.29,19.29,0,1,0,19-19.73A19.45,19.45,0,0,0,112.55,186.56Z"/><path class="cls-1" d="M188,52.08l14.85,14.85a5.46,5.46,0,0,0,7.72-7.71L195.75,44.36A5.46,5.46,0,1,0,188,52.08Z"/><path class="cls-1" d="M285.25,37.47l30,30a5.46,5.46,0,0,0,7.72-7.71l-30-30a5.46,5.46,0,0,0-7.72,7.72Z"/></g></g></svg>